<?xml version="1.0" encoding="UTF-8"?>
<!DOCTYPE svg PUBLIC "-//W3C//DTD SVG 1.1//EN" "http://www.w3.org/Graphics/SVG/1.1/DTD/svg11.dtd">
<!-- Creator: CorelDRAW -->
<svg xmlns="http://www.w3.org/2000/svg" xml:space="preserve" width="1.57842in" height="1.55769in" version="1.1" style="shape-rendering:geometricPrecision; text-rendering:geometricPrecision; image-rendering:optimizeQuality; fill-rule:evenodd; clip-rule:evenodd"
viewBox="0 0 1883.51 1858.78"
 xmlns:xlink="http://www.w3.org/1999/xlink"
 xmlns:xodm="http://www.corel.com/coreldraw/odm/2003">
 <defs>
  <style type="text/css">
   <![CDATA[
    .fil0 {fill:#ADD639}
   ]]>
  </style>
 </defs>
 <g id="Capa_x0020_1">
  <metadata id="CorelCorpID_0Corel-Layer"/>
  <g id="_2255228085424">
   <path class="fil0" d="M1095.74 584.25c-22.79,-88.56 -26.49,-80.17 -22.11,-113.75 8.51,-65.29 23.48,-114.61 48.51,-163.64 31.99,-62.68 93.2,-188.86 43.45,-200.42 -42.63,-9.91 -85.9,112.04 -102.4,158.55 -8.1,22.87 -26.58,108.09 -53.38,103.19 -13.38,-2.45 -14.43,-37.64 -9.51,-86.46 6.01,-59.66 52.22,-280.96 -9.71,-281.71 -71.35,-0.86 -50.41,250.23 -52.36,284.6 -3.61,63.12 -8.94,90.56 -29.11,90.61 -14.78,0.04 -24.06,-40.2 -31.45,-94.56 -8.29,-61.01 -27.69,-244.14 -83.43,-232.46 -47.14,9.88 -9.02,149.79 21.06,244.23 14.29,44.86 20.37,93.9 -12.04,99.87 -23.72,4.36 -41.79,-55.04 -71.45,-117.76 -7.84,-16.58 -38.37,-92.36 -68.25,-77.78 -24.37,11.9 0.89,71.31 14.74,99.28 21.13,42.68 40.56,78.27 53.53,112.74 14.27,37.92 -10.13,137.84 13.77,216.87 32.88,108.68 66.33,138.17 93.99,138.68 29.82,0.55 39.73,-13.73 53.1,-15.44 40.21,-5.14 49.22,17.09 126.2,18.6 33.62,0.66 63.91,-10.96 146.61,-86.39 -54.46,-64.97 -63.31,-79.69 -69.76,-96.86z"/>
   <path class="fil0" d="M1203.01 564.6c-21.01,43.29 -29.29,48.34 -58.07,80.56 0,0 8.77,11.82 28.22,31.87 38.49,-39.18 38.49,-42.14 71.62,-74.44 38.81,-37.82 92.62,-58.93 48.22,-72.66 -44.27,-13.7 -76.32,6.5 -89.99,34.68z"/>
  </g>
  <g id="_2255228084320">
   <path class="fil0" d="M1341.57 1036.09c80.38,-43.59 71.34,-45.14 104.99,-49.04 65.4,-7.58 116.88,-5.02 170.51,7.37 68.57,15.83 205.83,44.61 204.98,-6.46 -0.73,-43.76 -129.53,-56.16 -178.66,-60.88 -24.15,-2.32 -111.31,0.42 -113.05,-26.76 -0.87,-13.58 33.01,-23.13 81.57,-30.2 59.34,-8.64 285.24,-17.48 270.94,-77.75 -16.47,-69.42 -254.99,11.79 -288.8,18.24 -62.11,11.81 -90.02,13.29 -94.97,-6.27 -3.63,-14.32 33.16,-33.09 84.1,-53.44 57.18,-22.84 230.13,-86.09 205.28,-137.32 -21.01,-43.33 -147.5,27.58 -231.83,79.67 -40.05,24.75 -86.16,42.54 -99.8,12.54 -9.99,-21.96 43.26,-53.89 96.91,-97.88 14.19,-11.63 80.3,-59.63 58.91,-85.08 -17.45,-20.76 -68.97,18.16 -92.74,38.38 -36.28,30.86 -66.1,58.33 -96.38,79.28 -33.33,23.04 -136.18,23.6 -207.06,65.97 -97.46,58.26 -117.96,97.86 -111.75,124.82 6.69,29.06 22.96,35.21 27.86,47.76 14.74,37.77 -4.64,51.9 12.57,126.95 7.52,32.77 26.13,59.35 119.37,121.27 49.82,-68.59 61.96,-80.75 77.05,-91.17z"/>
   <path class="fil0" d="M1386.65 1135.4c-47.1,-9.88 -53.99,-16.69 -92.24,-36.8 0,0 -9.33,11.37 -24.07,35.11 47.35,27.84 50.22,27.11 89.59,51.43 46.11,28.47 79.64,75.56 82.19,29.16 2.55,-46.28 -24.81,-72.47 -55.47,-78.9z"/>
  </g>
  <g id="_2255228085904">
   <path class="fil0" d="M593.38 706.76c-91.44,1.02 -84.17,6.61 -115.74,-5.65 -61.37,-23.83 -105.7,-50.13 -147.35,-86.13 -53.24,-46.01 -161.18,-135.55 -184.28,-89.99 -19.78,39.04 88.32,110.14 129.56,137.25 20.28,13.32 98.63,51.59 87.48,76.45 -5.57,12.41 -39.99,5.04 -86.23,-11.38 -56.51,-20.06 -260.4,-117.72 -275.9,-57.75 -17.85,69.08 230.99,108.63 263.9,118.72 60.43,18.55 85.81,30.28 81.05,49.88 -3.48,14.36 -44.78,13.78 -99.33,7.99 -61.23,-6.5 -243.69,-31.32 -245.64,25.59 -1.65,48.14 143.32,44.49 242.21,37.79 46.97,-3.18 96.05,2.62 94.11,35.51 -1.42,24.09 -63.42,27.46 -131.4,41.31 -17.97,3.66 -98.85,15.24 -91.82,47.73 5.74,26.51 69.47,16.14 99.93,9.36 46.49,-10.34 85.69,-20.72 122.25,-25.1 40.23,-4.82 131.45,42.71 213.9,38.34 113.39,-6.01 150.01,-31.47 157.1,-58.21 7.65,-28.83 -3.86,-41.85 -2.33,-55.24 4.59,-40.29 28.33,-43.73 48.16,-118.13 8.66,-32.49 4.6,-64.68 -48.94,-162.97 -76.08,37.4 -92.49,42.48 -110.7,44.64z"/>
   <path class="fil0" d="M599.88 597.89c37.03,30.72 39.96,39.97 64.39,75.6 0,0 13.57,-5.7 37.68,-19.81 -28.87,-46.73 -31.75,-47.43 -55.22,-87.31 -27.47,-46.71 -35.14,-104 -59.07,-64.16 -23.86,39.73 -11.89,75.67 12.21,95.67z"/>
  </g>
  <g id="_2255228085856">
   <path class="fil0" d="M549.45 1210.57c-28.7,86.82 -21.06,81.76 -42.9,107.65 -42.46,50.32 -81.72,83.71 -129.28,111.43 -60.8,35.43 -180.52,108.48 -144.91,145.11 30.5,31.38 132.84,-47.81 171.87,-78.01 19.18,-14.86 80.81,-76.55 100.7,-57.94 9.94,9.3 -8.21,39.47 -38.75,77.88 -37.31,46.94 -195.85,208.11 -144.15,242.23 59.55,39.3 177.71,-183.25 197.93,-211.1 37.16,-51.15 56.48,-71.34 73.48,-60.49 12.45,7.95 -1.49,46.83 -24.67,96.55 -26.02,55.8 -108.71,220.35 -55.51,240.65 44.99,17.18 88.58,-121.13 114.33,-216.85 12.23,-45.46 33.64,-90 64.13,-77.5 22.32,9.16 5.39,68.9 -3.57,137.69 -2.37,18.19 -17.66,98.44 15.35,102.34 26.93,3.17 37.81,-60.47 41.28,-91.48 5.3,-47.33 8.2,-87.78 15.93,-123.78 8.49,-39.61 83.05,-110.47 105.67,-189.89 31.11,-109.2 18.91,-152.1 -4.08,-167.48 -24.78,-16.59 -40.84,-9.93 -53.01,-15.72 -36.61,-17.42 -32.17,-40.99 -96.11,-83.88 -27.92,-18.74 -59.68,-25.34 -170.03,-6.6 10.68,84.1 10.17,101.27 6.31,119.2z"/>
   <path class="fil0" d="M448.58 1169.09c41.08,-25.06 50.77,-24.83 92.41,-36.37 0,0 -0.99,-14.68 -6.51,-42.07 -53.57,12.15 -55.16,14.64 -100.5,23.89 -53.1,10.83 -109.78,-0.51 -79.86,35.05 29.83,35.46 67.71,35.8 94.45,19.49z"/>
  </g>
  <g id="_2255228087440">
   <path class="fil0" d="M1009.54 1417.18c66.91,62.32 65.5,53.27 79.91,83.92 28,59.59 41.96,109.2 47.3,163.99 6.82,70.04 23.24,209.32 71.38,192.26 41.25,-14.62 12,-140.67 0.84,-188.74 -5.49,-23.63 -35.84,-105.39 -10.62,-115.69 12.6,-5.14 32.44,23.94 54.6,67.72 27.08,53.5 107.37,264.83 159.96,232.09 60.57,-37.72 -92.35,-237.97 -109.23,-267.97 -30.96,-55.12 -41.25,-81.11 -24.29,-92.02 12.43,-7.99 41.93,20.9 77.44,62.72 39.85,46.93 154.86,190.75 195.53,150.88 34.39,-33.71 -73.1,-131.05 -149.34,-194.4 -36.21,-30.09 -67.75,-68.13 -43.66,-90.62 17.64,-16.46 64.86,23.86 123.64,60.71 15.54,9.75 82.09,57.14 99.4,28.76 14.13,-23.15 -39.17,-59.59 -65.9,-75.69 -40.8,-24.57 -76.34,-44.09 -105.84,-66.13 -32.45,-24.26 -65.73,-121.58 -128.45,-175.28 -86.25,-73.85 -130.33,-80.67 -153.9,-66.19 -25.42,15.6 -26.07,32.97 -36.41,41.61 -31.11,26 -50.67,12.13 -116.34,52.33 -28.68,17.56 -47.94,43.66 -76.96,151.77 80.89,25.39 96.28,33.03 110.96,44.01z"/>
   <path class="fil0" d="M929.75 1491.53c-5.63,-47.79 -1.37,-56.5 5.52,-99.16 0,0 -13.76,-5.23 -40.94,-11.64 -11.32,53.75 -9.72,56.24 -20.23,101.3 -12.32,52.77 -46.28,99.54 -1.48,87.19 44.68,-12.31 60.8,-46.59 57.14,-77.7z"/>
  </g>
 </g>
</svg>
