<?xml version="1.0" encoding="UTF-8"?>
<!DOCTYPE svg PUBLIC "-//W3C//DTD SVG 1.1//EN" "http://www.w3.org/Graphics/SVG/1.1/DTD/svg11.dtd">
<!-- Creator: CorelDRAW -->
<svg xmlns="http://www.w3.org/2000/svg" xml:space="preserve" width="26.3764mm" height="26.0918mm" version="1.1" style="shape-rendering:geometricPrecision; text-rendering:geometricPrecision; image-rendering:optimizeQuality; fill-rule:evenodd; clip-rule:evenodd"
viewBox="0 0 81.32 80.45"
 xmlns:xlink="http://www.w3.org/1999/xlink"
 xmlns:xodm="http://www.corel.com/coreldraw/odm/2003">
 <defs>
  <style type="text/css">
   <![CDATA[
    .fil0 {fill:#4D4E50}
   ]]>
  </style>
 </defs>
 <g id="Capa_x0020_1">
  <metadata id="CorelCorpID_0Corel-Layer"/>
  <path class="fil0" d="M0.32 7.66c0,4.21 3.21,6.47 6.08,9.33 1.78,1.78 22.59,22.39 23.15,23.23 -0.57,0.86 -24.32,24.41 -26.96,27.04 -0.74,0.74 -1.14,1.17 -1.68,2.13 -0.56,1 -0.86,2.19 -0.9,3.4l0 0.59c0.07,1.93 0.78,3.85 2.1,5.09 1.94,1.83 3.96,1.94 6.48,1.94 2.07,0 4.12,-1.35 5.21,-2.42l19.06 -19.06c1.31,-1.31 2.5,-2.5 3.81,-3.81 0.94,-0.94 3.23,-3.01 3.85,-3.93 1.02,0.68 23.83,23.88 26.96,26.89 3.47,3.35 9.48,2.95 11.82,0.14 1.2,-1.44 1.89,-3.04 2.04,-4.65l0 -1.36c-0.17,-1.78 -1,-3.52 -2.5,-5.02l-17.39 -17.39c-0.36,-0.36 -0.59,-0.6 -0.95,-0.96 -0.43,-0.43 -0.69,-0.53 -1.12,-0.95l-7.74 -7.83c0.88,-0.59 24.02,-23.95 26.73,-26.64 0.74,-0.74 1.08,-1.31 1.55,-2.26 2.64,-5.33 -1.9,-10.96 -6.36,-10.96 -2.75,0 -4.29,0.37 -6.31,2.42l-22.71 22.71c-0.93,0.93 -2.94,3.16 -3.85,3.77 -1.29,-0.87 -5.82,-6.03 -7.67,-7.58 -0.45,-0.38 -0.6,-0.45 -1.03,-0.88l-18.11 -18.11c-5.47,-5.51 -13.54,-1.25 -13.54,5.12z"/>
 </g>
</svg>
