<?xml version="1.0" encoding="UTF-8"?>
<!DOCTYPE svg PUBLIC "-//W3C//DTD SVG 1.1//EN" "http://www.w3.org/Graphics/SVG/1.1/DTD/svg11.dtd">
<!-- Creator: CorelDRAW -->
<svg xmlns="http://www.w3.org/2000/svg" xml:space="preserve" width="0.977126in" height="0.650126in" version="1.1" style="shape-rendering:geometricPrecision; text-rendering:geometricPrecision; image-rendering:optimizeQuality; fill-rule:evenodd; clip-rule:evenodd"
viewBox="0 0 16.18 10.76"
 xmlns:xlink="http://www.w3.org/1999/xlink"
 xmlns:xodm="http://www.corel.com/coreldraw/odm/2003">
 <defs>
  <style type="text/css">
   <![CDATA[
    .fil0 {fill:#4D4E50;fill-rule:nonzero}
   ]]>
  </style>
 </defs>
 <g id="Capa_x0020_1">
  <metadata id="CorelCorpID_0Corel-Layer"/>
  <path class="fil0" d="M0.03 9.89l7.08 -4.18 -7.11 -4.19 0 8.12c0,0.09 0.01,0.17 0.03,0.25z"/>
  <path class="fil0" d="M7.43 5.9l-7.28 4.29c0.19,0.34 0.55,0.57 0.97,0.57l13.93 0c0.45,0 0.84,-0.27 1.02,-0.66l-7.13 -4.2 -0.76 0.45 -0.76 -0.45z"/>
  <path class="fil0" d="M16.18 9.64l0 -8 -6.92 4.08 6.9 4.07c0.01,-0.05 0.02,-0.1 0.02,-0.15z"/>
  <path class="fil0" d="M1.12 0c-0.62,0 -1.12,0.5 -1.12,1.12l0 0.03 8.19 4.83 7.99 -4.71 0 -0.15c0,-0.62 -0.5,-1.12 -1.12,-1.12l-13.93 0z"/>
 </g>
</svg>
