<?xml version="1.0" encoding="UTF-8"?>
<!DOCTYPE svg PUBLIC "-//W3C//DTD SVG 1.1//EN" "http://www.w3.org/Graphics/SVG/1.1/DTD/svg11.dtd">
<!-- Creator: CorelDRAW (Evaluation Version) -->
<svg xmlns="http://www.w3.org/2000/svg" xml:space="preserve" width="0.983508in" height="0.861465in" version="1.1" style="shape-rendering:geometricPrecision; text-rendering:geometricPrecision; image-rendering:optimizeQuality; fill-rule:evenodd; clip-rule:evenodd"
viewBox="0 0 14.59 12.78"
 xmlns:xlink="http://www.w3.org/1999/xlink"
 xmlns:xodm="http://www.corel.com/coreldraw/odm/2003">
 <defs>
  <style type="text/css">
   <![CDATA[
    .fil0 {fill:#4D4E50;fill-rule:nonzero}
   ]]>
  </style>
 </defs>
 <g id="Capa_x0020_1">
  <metadata id="CorelCorpID_0Corel-Layer"/>
  <path class="fil0" d="M12.06 12.78c0.26,0 0.47,-0.21 0.47,-0.47l0 -5.05c-0.77,0 -1.08,0.01 -2.75,0 -0.3,-0 0.9,-0 1.29,-0 0.47,0 0.41,0.35 0.41,1.18 0,1.22 0.07,1.17 -1.06,1.17 -1.16,-0 -1.1,-0.05 -1.1,-1.21 0,-0.45 -0.09,-1.14 0.47,-1.15 -2.38,0 -4.76,0 -7.14,0 -0.25,0 1.5,-0 2.09,0 0.69,-0 0.66,0.26 0.66,1.19 -0,1.21 -0.13,1.15 -1.18,1.15 -1.1,0 -1.02,0.03 -1.01,-1.12 0.01,-1 0.01,-1.22 0.58,-1.22l-1.14 0 -1.08 0 10.94 -0c0.9,-0 2.09,-0.37 2.09,-0.82 0,-0.26 -0.13,-0.48 -0.31,-0.64l-1.61 -1.39 0 -2.31c0,-0.27 -0.22,-0.49 -0.49,-0.49l-1.02 0c-0.27,0 -0.49,0.22 -0.49,0.49l0 0.58 -2.85 -2.48c-0.31,-0.27 -0.77,-0.27 -1.07,0l-6.48 5.62c-0.26,0.22 -0.35,0.59 -0.23,0.91 0.12,0.32 0.43,0.53 0.77,0.53l1.24 0 0 5.05c0,0.26 0.21,0.47 0.47,0.47l3.37 0 0 -2.33c0,-0.52 0.42,-0.94 0.94,-0.94l0.96 0c0.52,0 0.94,0.42 0.94,0.94l0 2.33 3.31 0z"/>
 </g>
</svg>
