<?xml version="1.0" encoding="UTF-8"?>
<!DOCTYPE svg PUBLIC "-//W3C//DTD SVG 1.1//EN" "http://www.w3.org/Graphics/SVG/1.1/DTD/svg11.dtd">
<!-- Creator: CorelDRAW (Evaluation Version) -->
<svg xmlns="http://www.w3.org/2000/svg" xml:space="preserve" width="7.82178in" height="3.11896in" version="1.1" style="shape-rendering:geometricPrecision; text-rendering:geometricPrecision; image-rendering:optimizeQuality; fill-rule:evenodd; clip-rule:evenodd"
viewBox="0 0 7821.78 3118.96"
 xmlns:xlink="http://www.w3.org/1999/xlink"
 xmlns:xodm="http://www.corel.com/coreldraw/odm/2003">
 <defs>
  <style type="text/css">
   <![CDATA[
    .fil2 {fill:#201E1E}
    .fil1 {fill:#EA4E37;fill-rule:nonzero}
    .fil0 {fill:#201E1E;fill-rule:nonzero}
   ]]>
  </style>
 </defs>
 <g id="Capa_x0020_1">
  <metadata id="CorelCorpID_0Corel-Layer"/>
  <g id="_2140559671424">
   <path class="fil0" d="M2692.57 1773.91c-41.43,120.11 -149.96,140.01 -220.91,140.01l-765.92 0c-18.24,0 -77.33,2.58 -108.11,69.15 -3.04,7.62 -37.01,89.46 -40.34,99.13 -15.94,46.28 2.32,75.29 58.29,75.29l1106.63 -2.67c61.91,0 101.77,-45.52 117.96,-86.73 92.53,-218.46 178.69,-444.11 268.16,-664.4 89.17,-217.81 216.19,-212.48 444.42,-212.48l639.28 0c267.88,6.69 314.71,155.13 249,316.45l-235.24 577.45c-129.26,316.38 -102.89,309.82 -294.46,309.82 -224.84,0 -199.14,8.98 -79.91,-283.29l248.49 -612.02c11.4,-26.68 -4.76,-67.5 -49.67,-67.5 -104.66,0.28 -370.33,-0.3 -475.02,-0.02 -62.17,0 -102.86,29.68 -116.84,64 -111.67,274.91 -181.22,446.18 -294.22,724.37 -80.34,171.3 -196,178.97 -384.91,179.8 -418.32,0 -868.48,-4.56 -1286.78,-4.56 -194.13,0 -421,38.31 -306.87,-241.02l297.63 -739.6c82.02,-200.79 193.23,-223.89 466.12,-223.89l619.38 0c255.87,0 313.85,165.48 250.16,321.83 -11.24,26.6 -84.98,209.04 -106.29,260.87zm-311.55 -341.82c-85.84,0 -341.41,-0.22 -485.6,-0.17 -46.45,0.8 -85.34,29.43 -99.89,64.88 -4.4,10.78 -26.41,65.16 -32.54,79.96 -31.28,76.75 -3.25,96.26 61.81,96.26l458.89 0c73.59,-0.3 102.61,-52.03 120.28,-88.98 5.99,-14.94 26.22,-62.12 29.93,-73.1 22.26,-52.07 -9.52,-78.84 -52.88,-78.84z"/>
   <path class="fil1" d="M6289.69 990.41l-441.76 1086.85c-23.31,60.01 20.82,80.09 50.32,77.91l1098.96 0.19c80.7,-4.67 103.56,-47.3 131.25,-97.85 7.81,-18.91 25.53,-60.21 29.27,-73.6 11.22,-38.49 -4.01,-70.01 -46.05,-70.01l-607.04 -2.14c-273.87,0.01 -309.26,-42.07 -191.3,-331.17 26.35,-64.59 37.52,-92.99 71.99,-176.44 81.76,-197.97 194.86,-217.84 421.18,-212.6 356.85,0.01 600.15,-1.62 959.45,-1.61 24.33,-0.01 71.96,15.22 50.34,77.46 -13.03,31.33 -36.6,86.92 -43.78,104.54 -14.63,25.81 -62.66,60.15 -96.31,60.15 -6.11,0 -856.65,1.36 -866.75,1.37 -39.91,1.44 -73.7,13.94 -101.57,71.71 -7.56,17.64 -31.51,74.69 -36.47,87.09 -21.27,56.7 7.57,83.13 52.54,80.73 166.48,0 376.2,-1.85 542.65,-1.86 275.87,-4.35 300.62,197.67 259.7,298.19l-115.83 284.51c-45.59,115.09 -179.58,138.25 -301.31,138.37l-1325.52 2.94c-269.77,-2.27 -440.84,16.24 -335.29,-242.83 207.29,-508.05 418.1,-1018.39 625.71,-1527.2 12.42,-29.07 7.17,-75 -47.28,-75.64 -108,0 -366.85,0.59 -468.25,0.57 -53.24,-0.02 -102.11,11.48 -134.9,91.37 -234.78,576.69 -357.22,878.34 -592.13,1454.06 -132.13,323.38 -98.92,296.64 -302.52,296.64 -206.26,0 -187.27,5.17 -63.9,-296.85l630.66 -1545.71c90.06,-221.02 172.3,-240.41 461.76,-240.41l588.34 0c300.85,0 368.81,131.4 278.36,353.48 -90.44,222.08 -128.72,313.45 -134.52,327.76z"/>
   <path class="fil1" d="M5644.33 1149.67c40.38,30.54 60.95,67.41 60.95,111.2 0,43.79 -20.57,80.66 -60.95,111.2 -20.57,15.56 -42.66,27.08 -67.04,34.57 -24.38,7.49 -51.04,11.53 -79.98,11.53 -28.95,0 -55.62,-4.04 -80,-11.53 -24.38,-7.49 -47.24,-19.02 -67.04,-34.57 -20.57,-14.98 -35.8,-32.26 -45.71,-50.7 -9.9,-18.44 -14.47,-38.61 -14.47,-60.5 0,-21.9 4.57,-42.06 14.47,-60.5 9.91,-18.44 25.14,-35.72 45.71,-50.71 19.8,-15.56 42.66,-27.08 67.04,-34.57 24.38,-7.49 51.04,-11.52 80,-11.52 28.94,0 55.61,4.03 79.98,11.52 24.38,7.48 46.47,19.01 67.04,34.57l0 0z"/>
   <path class="fil2" d="M515.75 2451.86c-80.83,199.49 -163.74,405.63 -243.89,603.05 -9.72,20.97 -51.58,63.81 -110.72,64.05 -27.77,0 -66.46,0 -100.47,0 -33.3,0 -67.45,-26.44 -51.62,-66.83l251.33 -619.97c18.04,-43.23 21.77,-38.33 -38.14,-38.33 -51.35,-0.01 -100.73,0.07 -129.67,0 -60.17,-6.17 -49.81,-61.41 -39.62,-82.37 9.94,-24.01 29.83,-76.46 37.67,-91.1 14.26,-28.99 50.88,-69.83 111.04,-71.48 17.09,-0.44 66.11,-0.49 91.46,-0.37 68.67,0.32 104.94,-55.47 119.45,-91.23l398.58 -981.69c43.12,-105.2 70.91,-166.64 85.26,-208.19 14.85,-34.76 8.37,-76.52 -48.28,-76.47 -147.31,0.02 -664.09,-0.15 -781.33,0 -52.25,0 -84.74,-24.33 -56.18,-85.83 4.08,-11.48 7.47,-19.76 12.58,-32.58 26.09,-62.5 46.59,-124.23 135.34,-124.34l2167.07 0c39.91,0.06 71.11,31.69 35.21,102.93 -5.39,12.88 -22.02,53.98 -24.02,58.44 -25.58,65.52 -78.19,81.38 -100.69,81.43l-554.64 0c-234.98,-0.05 -267.02,99.87 -342.5,277.92l-413.71 1019.61c-99.88,244.89 -109.98,305.34 -232.29,305.34 -49.1,0 -108.7,0 -131.93,0 -22.73,0 -21.17,-0.99 -45.3,58.04z"/>
   <path class="fil2" d="M1633.32 0l-252.98 0c-43.84,0 -94,35.92 -111.43,79.69l-100.69 252.96c-17.42,43.76 4.2,79.69 47.97,79.69l252.98 0c43.77,0 93.98,-35.86 111.43,-79.69l100.69 -252.96c17.45,-43.83 -4.14,-79.69 -47.97,-79.69z"/>
   <path class="fil2" d="M783.67 2636.21c2025.8,7.98 4368.62,1.23 6394.46,1.28 39.91,0 63.33,32.49 49.01,72.22 -8.82,21.76 -34.96,85.37 -41.04,100.22 -13.09,32.1 -63.51,71.24 -115.47,71.24 -2058.74,0 -4327.38,-1.28 -6386.13,-1.28 -44.76,0 -70.03,-29.96 -48.72,-81.99 15.75,-39.68 24.22,-58.36 35.66,-87.1 19.28,-47.04 62.42,-74.58 112.24,-74.58z"/>
  </g>
 </g>
</svg>
