<?xml version="1.0" encoding="UTF-8"?>
<!DOCTYPE svg PUBLIC "-//W3C//DTD SVG 1.1//EN" "http://www.w3.org/Graphics/SVG/1.1/DTD/svg11.dtd">
<!-- Creator: CorelDRAW -->
<svg xmlns="http://www.w3.org/2000/svg" xml:space="preserve" width="6.6208in" height="2.74735in" version="1.1" style="shape-rendering:geometricPrecision; text-rendering:geometricPrecision; image-rendering:optimizeQuality; fill-rule:evenodd; clip-rule:evenodd"
viewBox="0 0 1996.43 828.43"
 xmlns:xlink="http://www.w3.org/1999/xlink"
 xmlns:xodm="http://www.corel.com/coreldraw/odm/2003">
 <defs>
  <style type="text/css">
   <![CDATA[
    .str0 {stroke:#F5F2F4;stroke-width:4.19;stroke-miterlimit:2.61313}
    .str2 {stroke:#F8F5F6;stroke-width:2.09;stroke-miterlimit:2.61313}
    .str3 {stroke:#F8F3F4;stroke-width:2.09;stroke-miterlimit:2.61313}
    .str1 {stroke:#F9FBFC;stroke-width:0.9;stroke-miterlimit:2.61313}
    .fil1 {fill:#A5CE39}
    .fil3 {fill:#ADD639}
    .fil0 {fill:#3952A5;fill-rule:nonzero}
    .fil2 {fill:#A5CE39;fill-rule:nonzero}
   ]]>
  </style>
 </defs>
 <g id="Capa_x0020_1">
  <metadata id="CorelCorpID_0Corel-Layer"/>
  <path class="fil0 str0" d="M112.74 532.68l-51.43 0 0 26.36 42.99 0c3.96,0 6.96,0.72 8.91,2.14 1.95,1.44 2.94,3.36 2.94,5.74 0,2.4 -0.99,4.3 -2.97,5.71 -2.01,1.42 -4.98,2.11 -8.88,2.11l-42.99 0 0 33.95c0,4.32 -1.23,7.51 -3.66,9.6 -2.43,2.09 -5.55,3.12 -9.33,3.12 -3.87,0 -7.02,-1.06 -9.45,-3.17 -2.43,-2.11 -3.66,-5.31 -3.66,-9.56l0 -79.35c0,-3 0.57,-5.45 1.68,-7.35 1.11,-1.9 2.85,-3.29 5.22,-4.15 2.37,-0.86 5.4,-1.3 9.09,-1.3l61.54 0c4.17,0 7.26,0.74 9.27,2.21 2.01,1.49 3.03,3.43 3.03,5.81 0,2.45 -1.02,4.42 -3.03,5.91 -2.01,1.46 -5.1,2.21 -9.27,2.21zm31.92 44.37l0 -49.58c0,-4.23 1.2,-7.37 3.57,-9.48 2.37,-2.11 5.49,-3.17 9.36,-3.17 4.02,0 7.23,1.06 9.6,3.17 2.37,2.11 3.57,5.28 3.57,9.48l0 50.73c0,5.76 0.81,10.59 2.43,14.45 1.59,3.87 4.47,6.87 8.55,9 4.11,2.14 9.84,3.19 17.22,3.19 10.2,0 17.4,-2.16 21.63,-6.51 4.23,-4.35 6.33,-10.92 6.33,-19.73l0 -51.14c0,-4.25 1.17,-7.44 3.51,-9.53 2.34,-2.09 5.49,-3.12 9.42,-3.12 3.9,0 7.08,1.03 9.51,3.12 2.43,2.09 3.66,5.28 3.66,9.53l0 49.58c0,8.07 -0.99,14.81 -2.94,20.19 -1.98,5.4 -5.67,10.13 -11.13,14.21 -4.68,3.46 -10.14,5.98 -16.35,7.59 -6.21,1.58 -13.47,2.38 -21.78,2.38 -9.9,0 -18.42,-0.86 -25.59,-2.57 -7.14,-1.7 -12.96,-4.37 -17.46,-7.95 -4.53,-3.58 -7.83,-8.19 -9.96,-13.78 -2.1,-5.59 -3.15,-12.29 -3.15,-20.07zm221.51 -44.37l-58.81 0 0 25.35 54.15 0c3.99,0 6.96,0.72 8.91,2.14 1.98,1.42 2.94,3.31 2.94,5.64 0,2.33 -0.96,4.25 -2.88,5.71 -1.95,1.46 -4.92,2.21 -8.97,2.21l-54.15 0 0 29.39 60.82 0c4.11,0 7.2,0.77 9.27,2.28 2.1,1.51 3.15,3.55 3.15,6.07 0,2.42 -1.05,4.42 -3.15,5.93 -2.07,1.51 -5.16,2.28 -9.27,2.28l-70.93 0c-5.67,0 -9.75,-1.01 -12.24,-3.02 -2.49,-2.02 -3.75,-5.28 -3.75,-9.77l0 -77.55c0,-3 0.57,-5.45 1.68,-7.35 1.11,-1.9 2.85,-3.29 5.22,-4.15 2.37,-0.86 5.4,-1.3 9.09,-1.3l68.92 0c4.17,0 7.26,0.74 9.27,2.21 2.01,1.49 3.03,3.43 3.03,5.81 0,2.45 -1.02,4.42 -3.03,5.91 -2.01,1.46 -5.1,2.21 -9.27,2.21zm70.24 42.93l-9.15 0 0 33.08c0,4.37 -1.2,7.56 -3.6,9.63 -2.4,2.06 -5.55,3.1 -9.39,3.1 -4.17,0 -7.41,-1.08 -9.69,-3.24 -2.28,-2.16 -3.42,-5.31 -3.42,-9.48l0 -79.35c0,-4.49 1.26,-7.75 3.78,-9.77 2.52,-2.02 6.6,-3.02 12.21,-3.02l42.45 0c5.85,0 10.86,0.19 15.03,0.6 4.17,0.41 7.92,1.2 11.25,2.43 4.05,1.37 7.62,3.31 10.74,5.83 3.09,2.55 5.46,5.5 7.05,8.83 1.62,3.36 2.43,6.91 2.43,10.68 0,7.68 -2.7,13.83 -8.13,18.44 -5.43,4.59 -13.65,7.85 -24.66,9.77 4.62,1.97 9.06,4.87 13.29,8.71 4.2,3.84 7.98,7.95 11.28,12.27 3.3,4.35 5.88,8.23 7.74,11.74 1.83,3.48 2.76,5.88 2.76,7.2 0,1.35 -0.54,2.69 -1.62,4.03 -1.08,1.34 -2.55,2.4 -4.44,3.17 -1.86,0.77 -4.05,1.15 -6.51,1.15 -2.91,0 -5.37,-0.55 -7.38,-1.66 -1.98,-1.11 -3.69,-2.5 -5.13,-4.18 -1.44,-1.68 -3.39,-4.18 -5.85,-7.44l-10.47 -13.92c-3.75,-5.09 -7.11,-8.98 -10.05,-11.64 -2.97,-2.69 -5.97,-4.51 -9.03,-5.5 -3.03,-0.98 -6.87,-1.46 -11.49,-1.46zm14.94 -43.36l-24.09 0 0 28.38 23.37 0c6.27,0 11.55,-0.43 15.84,-1.3 4.26,-0.86 7.53,-2.35 9.78,-4.44 2.25,-2.09 3.39,-4.97 3.39,-8.62 0,-2.88 -0.9,-5.4 -2.73,-7.59 -1.8,-2.18 -4.32,-3.82 -7.56,-4.9 -3.03,-1.03 -9.03,-1.54 -18,-1.54zm76.06 63.36l66.22 -63.36 -56.89 0c-3.99,0 -6.99,-0.7 -9,-2.11 -2.04,-1.42 -3.03,-3.26 -3.03,-5.57 0,-2.38 0.99,-4.32 3.03,-5.81 2.01,-1.46 5.01,-2.21 9,-2.21l73.33 0c9.48,0 14.22,3.55 14.22,10.63 0,3.39 -0.78,6.07 -2.37,8.09 -1.59,2.02 -4.77,5.28 -9.57,9.79l-61.9 58.92 68.23 0c4.02,0 7.05,0.67 9.03,2.02 2.01,1.32 3,3.19 3,5.59 0,2.47 -0.99,4.44 -3,5.91 -1.98,1.46 -5.01,2.18 -9.03,2.18l-83.71 0c-5.67,0 -9.96,-1.03 -12.81,-3.07 -2.88,-2.04 -4.32,-4.75 -4.32,-8.19 0,-1.18 0.24,-2.26 0.69,-3.24 0.48,-0.98 1.11,-1.92 1.89,-2.78 0.81,-0.86 1.89,-1.97 3.3,-3.29 1.41,-1.34 2.64,-2.52 3.69,-3.51zm202.16 12.39l-6.15 -12.94 -52.38 0 -6.15 13.2c-2.4,5.16 -4.44,8.64 -6.15,10.44 -1.68,1.8 -4.47,2.71 -8.34,2.71 -3.27,0 -6.18,-0.96 -8.7,-2.88 -2.52,-1.92 -3.78,-4.11 -3.78,-6.53 0,-1.42 0.3,-2.88 0.87,-4.37 0.6,-1.51 1.56,-3.58 2.91,-6.27l32.94 -66.93c0.96,-1.92 2.07,-4.23 3.39,-6.91 1.32,-2.71 2.73,-4.95 4.23,-6.72 1.5,-1.78 3.45,-3.22 5.88,-4.32 2.43,-1.1 5.43,-1.66 9,-1.66 3.66,0 6.69,0.55 9.12,1.66 2.43,1.1 4.38,2.52 5.88,4.25 1.5,1.73 2.76,3.6 3.78,5.59 1.02,1.99 2.34,4.66 3.9,7.97l33.66 66.53c2.64,5.07 3.96,8.74 3.96,11.04 0,2.38 -1.23,4.59 -3.72,6.58 -2.49,1.99 -5.52,2.98 -9.03,2.98 -2.04,0 -3.81,-0.29 -5.28,-0.89 -1.44,-0.58 -2.67,-1.37 -3.69,-2.38 -0.99,-1.01 -2.04,-2.57 -3.18,-4.63 -1.17,-2.09 -2.13,-3.94 -2.97,-5.52zm-51.67 -28.64l38.49 0 -19.41 -42.49 -19.08 42.49zm172.46 29.34l0 -32.7 -31.47 -39.01c-2.76,-3.53 -4.71,-6.27 -5.85,-8.23 -1.14,-1.97 -1.71,-3.67 -1.71,-5.14 0,-2.38 1.17,-4.44 3.48,-6.19 2.31,-1.73 5.16,-2.59 8.58,-2.59 3.57,0 6.27,0.82 8.13,2.42 1.83,1.61 4.59,4.83 8.28,9.65l24.09 31.28 24.36 -31.28c1.44,-1.92 2.67,-3.53 3.69,-4.85 0.99,-1.3 2.07,-2.52 3.3,-3.67 1.2,-1.15 2.52,-2.04 3.99,-2.64 1.47,-0.6 3.24,-0.91 5.37,-0.91 3.27,0 6,0.86 8.19,2.57 2.22,1.7 3.3,3.7 3.3,5.93 0,1.82 -0.54,3.67 -1.65,5.5 -1.11,1.82 -3.03,4.35 -5.73,7.59l-32.25 39.59 0 32.7c0,4.27 -1.23,7.44 -3.69,9.56 -2.46,2.11 -5.61,3.17 -9.39,3.17 -3.87,0 -7.02,-1.03 -9.42,-3.12 -2.4,-2.09 -3.6,-5.28 -3.6,-9.6zm147.82 -80.16l29.16 69.12 29.25 -69.6c1.53,-3.67 2.67,-6.22 3.42,-7.63 0.78,-1.44 2.04,-2.71 3.78,-3.87 1.77,-1.15 4.17,-1.73 7.2,-1.73 2.22,0 4.29,0.46 6.21,1.34 1.89,0.89 3.39,2.06 4.47,3.55 1.08,1.46 1.62,2.95 1.62,4.47 0,1.01 -0.18,2.14 -0.54,3.34 -0.33,1.18 -0.78,2.35 -1.29,3.5 -0.54,1.15 -1.08,2.33 -1.59,3.55l-31.17 67.37c-1.14,2.57 -2.25,5.02 -3.36,7.35 -1.11,2.3 -2.4,4.35 -3.87,6.12 -1.44,1.75 -3.39,3.19 -5.82,4.32 -2.43,1.13 -5.4,1.68 -8.91,1.68 -3.54,0 -6.51,-0.55 -8.94,-1.66 -2.43,-1.11 -4.38,-2.55 -5.88,-4.35 -1.47,-1.82 -2.79,-3.87 -3.9,-6.17 -1.11,-2.28 -2.22,-4.73 -3.33,-7.3l-30.66 -66.81c-0.54,-1.2 -1.08,-2.4 -1.62,-3.58 -0.57,-1.18 -1.02,-2.45 -1.41,-3.79 -0.39,-1.37 -0.57,-2.52 -0.57,-3.46 0,-2.38 1.2,-4.56 3.6,-6.53 2.4,-1.97 5.43,-2.95 9.06,-2.95 4.44,0 7.59,1.08 9.42,3.26 1.86,2.18 3.75,5.67 5.67,10.44zm159.08 -13.71c13.38,0 24.84,2.16 34.41,6.51 9.57,4.32 16.83,10.49 21.75,18.49 4.92,7.99 7.38,17.38 7.38,28.16 0,7.97 -1.35,15.22 -4.05,21.73 -2.7,6.53 -6.72,12.17 -12.12,16.95 -5.4,4.78 -12,8.43 -19.86,10.97 -7.86,2.52 -16.83,3.79 -26.97,3.79 -10.08,0 -19.11,-1.3 -27.06,-3.91 -7.98,-2.59 -14.61,-6.27 -19.95,-11 -5.34,-4.73 -9.36,-10.42 -12.09,-17.09 -2.73,-6.65 -4.08,-13.85 -4.08,-21.58 0,-7.92 1.41,-15.17 4.26,-21.8 2.85,-6.6 6.96,-12.22 12.36,-16.88 5.37,-4.63 11.94,-8.19 19.68,-10.64 7.71,-2.47 16.5,-3.7 26.34,-3.7zm37.08 53.01c0,-7.54 -1.53,-14.09 -4.56,-19.64 -3.06,-5.52 -7.41,-9.7 -13.05,-12.56 -5.64,-2.83 -12.15,-4.25 -19.47,-4.25 -5.19,0 -10.02,0.79 -14.43,2.35 -4.44,1.58 -8.25,3.87 -11.43,6.87 -3.18,3 -5.7,6.84 -7.56,11.5 -1.83,4.68 -2.76,9.92 -2.76,15.73 0,5.88 0.93,11.16 2.76,15.92 1.86,4.73 4.47,8.67 7.83,11.79 3.36,3.12 7.23,5.45 11.58,6.99 4.38,1.56 9.15,2.33 14.37,2.33 6.69,0 12.81,-1.34 18.42,-4.01 5.58,-2.67 10.02,-6.79 13.35,-12.39 3.3,-5.57 4.95,-12.46 4.95,-20.62zm74.35 -40.36l0 75.07 52.92 0c4.2,0 7.44,0.82 9.69,2.45 2.28,1.66 3.39,3.72 3.39,6.19 0,2.52 -1.11,4.59 -3.33,6.15 -2.22,1.56 -5.49,2.35 -9.75,2.35l-63.04 0c-5.67,0 -9.75,-1.01 -12.24,-3.02 -2.49,-2.02 -3.75,-5.28 -3.75,-9.77l0 -79.42c0,-4.2 1.2,-7.37 3.57,-9.48 2.37,-2.11 5.49,-3.17 9.36,-3.17 3.9,0 7.08,1.03 9.51,3.12 2.43,2.09 3.66,5.28 3.66,9.53zm74.38 49.58l0 -49.58c0,-4.23 1.2,-7.37 3.57,-9.48 2.37,-2.11 5.49,-3.17 9.36,-3.17 4.02,0 7.23,1.06 9.6,3.17 2.37,2.11 3.57,5.28 3.57,9.48l0 50.73c0,5.76 0.81,10.59 2.43,14.45 1.59,3.87 4.47,6.87 8.55,9 4.11,2.14 9.84,3.19 17.22,3.19 10.2,0 17.4,-2.16 21.63,-6.51 4.23,-4.35 6.33,-10.92 6.33,-19.73l0 -51.14c0,-4.25 1.17,-7.44 3.51,-9.53 2.34,-2.09 5.49,-3.12 9.42,-3.12 3.9,0 7.08,1.03 9.51,3.12 2.43,2.09 3.66,5.28 3.66,9.53l0 49.58c0,8.07 -0.99,14.81 -2.94,20.19 -1.98,5.4 -5.67,10.13 -11.13,14.21 -4.68,3.46 -10.14,5.98 -16.35,7.59 -6.21,1.58 -13.47,2.38 -21.78,2.38 -9.9,0 -18.42,-0.86 -25.59,-2.57 -7.14,-1.7 -12.96,-4.37 -17.46,-7.95 -4.53,-3.58 -7.83,-8.19 -9.96,-13.78 -2.1,-5.59 -3.15,-12.29 -3.15,-20.07zm170.68 -49.7l50.17 60.79 0 -61.36c0,-3.99 1.08,-6.96 3.21,-8.95 2.13,-1.99 5.01,-3 8.64,-3 3.72,0 6.69,0.98 8.85,2.98 2.16,1.99 3.24,4.99 3.24,8.98l0 81.07c0,9.05 -4.68,13.56 -14.04,13.56 -2.34,0 -4.44,-0.26 -6.33,-0.82 -1.86,-0.53 -3.63,-1.39 -5.25,-2.54 -1.65,-1.18 -3.15,-2.55 -4.56,-4.13 -1.41,-1.56 -2.82,-3.17 -4.23,-4.8l-48.93 -60.02 0 60.36c0,3.94 -1.14,6.91 -3.42,8.93 -2.31,2.02 -5.25,3.02 -8.82,3.02 -3.69,0 -6.66,-1.01 -8.88,-3.05 -2.25,-2.04 -3.36,-5.02 -3.36,-8.91l0 -79.51c0,-3.38 0.48,-6.03 1.41,-7.95 1.11,-2.11 2.97,-3.84 5.55,-5.19 2.58,-1.32 5.37,-1.99 8.34,-1.99 2.37,0 4.38,0.31 6.03,0.91 1.68,0.62 3.15,1.44 4.41,2.47 1.26,1.03 2.55,2.35 3.87,4.01 1.32,1.63 2.7,3.34 4.11,5.14zm186.44 6.48l-28.47 0 0 74.86c0,4.32 -1.2,7.51 -3.63,9.6 -2.4,2.09 -5.52,3.12 -9.33,3.12 -3.87,0 -7.05,-1.06 -9.48,-3.17 -2.43,-2.11 -3.66,-5.28 -3.66,-9.56l0 -74.86 -28.47 0c-4.47,0 -7.77,-0.79 -9.93,-2.35 -2.16,-1.58 -3.27,-3.67 -3.27,-6.27 0,-2.67 1.14,-4.78 3.39,-6.34 2.25,-1.56 5.52,-2.33 9.81,-2.33l83.05 0c4.53,0 7.86,0.79 10.08,2.4 2.19,1.61 3.3,3.7 3.3,6.27 0,2.59 -1.14,4.68 -3.36,6.27 -2.22,1.56 -5.55,2.35 -10.02,2.35zm99.91 74.16l-6.15 -12.94 -52.38 0 -6.15 13.2c-2.4,5.16 -4.44,8.64 -6.15,10.44 -1.68,1.8 -4.47,2.71 -8.34,2.71 -3.27,0 -6.18,-0.96 -8.7,-2.88 -2.52,-1.92 -3.78,-4.11 -3.78,-6.53 0,-1.42 0.3,-2.88 0.87,-4.37 0.6,-1.51 1.56,-3.58 2.91,-6.27l32.94 -66.93c0.96,-1.92 2.07,-4.23 3.39,-6.91 1.32,-2.71 2.73,-4.95 4.23,-6.72 1.5,-1.78 3.45,-3.22 5.88,-4.32 2.43,-1.1 5.43,-1.66 9,-1.66 3.66,0 6.69,0.55 9.12,1.66 2.43,1.1 4.38,2.52 5.88,4.25 1.5,1.73 2.76,3.6 3.78,5.59 1.02,1.99 2.34,4.66 3.9,7.97l33.66 66.53c2.64,5.07 3.96,8.74 3.96,11.04 0,2.38 -1.23,4.59 -3.72,6.58 -2.49,1.99 -5.52,2.98 -9.03,2.98 -2.04,0 -3.81,-0.29 -5.28,-0.89 -1.44,-0.58 -2.67,-1.37 -3.69,-2.38 -0.99,-1.01 -2.04,-2.57 -3.18,-4.63 -1.17,-2.09 -2.13,-3.94 -2.97,-5.52zm-51.67 -28.64l38.49 0 -19.41 -42.49 -19.08 42.49zm114.82 -62.8l34.02 0c8.85,0 16.44,0.65 22.77,1.97 6.36,1.32 12.09,3.79 17.25,7.39 13.41,9.19 20.13,23.19 20.13,41.94 0,6.19 -0.66,11.84 -2.01,16.95 -1.35,5.11 -3.45,9.72 -6.24,13.83 -2.82,4.11 -6.42,7.78 -10.83,11.02 -3.45,2.47 -7.23,4.46 -11.34,5.95 -4.11,1.51 -8.52,2.57 -13.23,3.17 -4.71,0.6 -10.05,0.91 -15.96,0.91l-34.02 0c-4.74,0 -8.31,-0.58 -10.74,-1.73 -2.4,-1.15 -3.96,-2.76 -4.68,-4.85 -0.75,-2.09 -1.11,-4.8 -1.11,-8.11l0 -75.65c0,-4.49 1.26,-7.75 3.78,-9.77 2.52,-2.02 6.6,-3.02 12.21,-3.02zm10.11 16.56l0 70.01 19.8 0c4.32,0 7.74,-0.1 10.2,-0.29 2.46,-0.19 5.01,-0.65 7.65,-1.39 2.64,-0.77 4.92,-1.82 6.84,-3.17 8.73,-5.91 13.11,-16.08 13.11,-30.54 0,-10.18 -1.92,-17.81 -5.76,-22.88 -3.84,-5.07 -8.58,-8.28 -14.19,-9.67 -5.64,-1.37 -12.45,-2.07 -20.4,-2.07l-17.25 0z"/>
  <path class="fil1 str1" d="M994.41 737.49c416.54,0 782.08,57.12 930.76,80.16 45.61,7.07 70.09,13.14 70.82,8.96 0.7,-4.03 -24.86,-9.19 -69.88,-19.11 -148.07,-32.64 -514.28,-94.48 -931.7,-94.48 -448.4,0 -832.67,69.73 -954.08,99.02 -25.98,6.27 -39.84,9.48 -39.88,12.17 -0.04,3.03 14.35,-0.1 40.9,-3.73 122.49,-16.77 505.72,-82.98 953.05,-82.98z"/>
  <path class="fil2 str1" d="M39.31 681.95l0 -31.38 33.06 0 0 3.68 -26.56 0 0 9.77 23 0 0 3.68 -23 0 0 14.24 -6.5 0zm92.59 -31.38l6.5 0 0 18.12c0,3.16 -0.56,5.66 -1.67,7.52 -1.12,1.85 -3.13,3.36 -6.02,4.52 -2.91,1.16 -6.71,1.75 -11.43,1.75 -4.58,0 -8.33,-0.5 -11.24,-1.52 -2.92,-1.02 -5,-2.48 -6.24,-4.4 -1.24,-1.92 -1.87,-4.54 -1.87,-7.87l0 -18.12 6.5 0 0 18.12c0,2.72 0.4,4.74 1.19,6.03 0.79,1.29 2.13,2.29 4.06,2.99 1.91,0.7 4.27,1.05 7.04,1.05 4.75,0 8.13,-0.69 10.15,-2.08 2.02,-1.39 3.02,-4.05 3.02,-7.99l0 -18.12zm36.28 31.38l0 -31.38 6.66 0 25.72 24.63 0 -24.63 6.23 0 0 31.38 -6.66 0 -25.71 -24.63 0 24.63 -6.23 0zm68.52 0l0 -31.38 16.88 0c3.81,0 6.72,0.15 8.73,0.45 2.81,0.42 5.2,1.17 7.19,2.25 2.59,1.4 4.52,3.19 5.8,5.36 1.29,2.18 1.93,4.67 1.93,7.47 0,2.38 -0.43,4.49 -1.3,6.33 -0.87,1.84 -1.98,3.37 -3.34,4.57 -1.37,1.2 -2.85,2.15 -4.47,2.84 -1.61,0.69 -3.56,1.22 -5.84,1.58 -2.29,0.36 -4.92,0.53 -7.88,0.53l-17.68 0zm6.5 -3.68l10.45 0c3.23,0 5.76,-0.19 7.6,-0.58 1.84,-0.39 3.3,-0.93 4.39,-1.63 1.53,-0.99 2.72,-2.31 3.58,-3.98 0.85,-1.67 1.29,-3.68 1.29,-6.06 0,-3.29 -0.84,-5.81 -2.52,-7.58 -1.68,-1.77 -3.72,-2.95 -6.13,-3.55 -1.73,-0.43 -4.53,-0.64 -8.38,-0.64l-10.28 0 0 24.02zm52.8 3.68l18.8 -31.38 7.13 0 19.95 31.38 -7.38 0 -5.67 -9.51 -20.64 0 -5.32 9.51 -6.88 0zm14.1 -12.89l16.7 0 -5.11 -8.7c-1.54,-2.64 -2.7,-4.83 -3.51,-6.55 -0.67,2.05 -1.57,4.05 -2.7,6.04l-5.37 9.21zm87.08 1.88l6.5 1.05c-1.36,3.41 -3.8,6 -7.32,7.79 -3.52,1.79 -7.84,2.69 -12.94,2.69 -5.27,0 -9.56,-0.69 -12.87,-2.07 -3.31,-1.37 -5.82,-3.37 -7.54,-5.98 -1.72,-2.62 -2.59,-5.41 -2.59,-8.41 0,-3.27 0.97,-6.12 2.92,-8.55 1.95,-2.43 4.72,-4.28 8.32,-5.54 3.59,-1.26 7.55,-1.89 11.86,-1.89 4.9,0 9.02,0.8 12.35,2.4 3.34,1.6 5.67,3.84 6.98,6.73l-6.36 0.96c-1.13,-2.28 -2.79,-3.94 -4.94,-4.98 -2.16,-1.04 -4.87,-1.56 -8.14,-1.56 -3.75,0 -6.9,0.58 -9.42,1.73 -2.52,1.15 -4.3,2.71 -5.32,4.65 -1.03,1.95 -1.54,3.96 -1.54,6.03 0,2.67 0.6,5 1.81,6.98 1.21,1.99 3.09,3.48 5.65,4.46 2.56,0.99 5.32,1.48 8.29,1.48 3.63,0 6.68,-0.67 9.2,-2.01 2.51,-1.34 4.21,-3.33 5.1,-5.97zm34.64 11.01l0 -31.38 6.5 0 0 31.38 -6.5 0zm34.95 -15.28c0,-5.2 2.19,-9.28 6.56,-12.22 4.37,-2.94 10.01,-4.41 16.92,-4.41 4.53,0 8.6,0.69 12.24,2.08 3.63,1.38 6.4,3.31 8.31,5.79 1.9,2.47 2.86,5.27 2.86,8.41 0,3.18 -1,6.03 -3.01,8.53 -2.01,2.51 -4.85,4.41 -8.52,5.7 -3.68,1.29 -7.65,1.94 -11.91,1.94 -4.62,0 -8.74,-0.72 -12.38,-2.14 -3.63,-1.42 -6.39,-3.37 -8.26,-5.84 -1.87,-2.46 -2.81,-5.07 -2.81,-7.82zm6.71 0.07c0,3.78 1.59,6.75 4.76,8.92 3.17,2.17 7.15,3.26 11.95,3.26 4.88,0 8.89,-1.1 12.05,-3.29 3.15,-2.19 4.72,-5.3 4.72,-9.34 0,-2.55 -0.67,-4.78 -2.02,-6.68 -1.35,-1.9 -3.32,-3.37 -5.91,-4.42 -2.6,-1.04 -5.51,-1.57 -8.74,-1.57 -4.58,0 -8.53,1.01 -11.84,3.02 -3.31,2.02 -4.96,5.38 -4.96,10.09zm11.78 -18.11l4.38 -6 7.94 0 -7.32 6 -5 0zm55.69 33.31l0 -31.38 6.66 0 25.71 24.63 0 -24.63 6.23 0 0 31.38 -6.66 0 -25.71 -24.63 0 24.63 -6.23 0zm160.48 -11.01l6.5 1.05c-1.36,3.41 -3.8,6 -7.32,7.79 -3.52,1.79 -7.84,2.69 -12.94,2.69 -5.27,0 -9.56,-0.69 -12.87,-2.07 -3.31,-1.37 -5.82,-3.37 -7.54,-5.98 -1.72,-2.62 -2.59,-5.41 -2.59,-8.41 0,-3.27 0.97,-6.12 2.92,-8.55 1.95,-2.43 4.72,-4.28 8.32,-5.54 3.59,-1.26 7.55,-1.89 11.87,-1.89 4.9,0 9.02,0.8 12.35,2.4 3.34,1.6 5.67,3.84 6.98,6.73l-6.36 0.96c-1.13,-2.28 -2.78,-3.94 -4.94,-4.98 -2.16,-1.04 -4.87,-1.56 -8.14,-1.56 -3.75,0 -6.9,0.58 -9.42,1.73 -2.52,1.15 -4.3,2.71 -5.31,4.65 -1.03,1.95 -1.54,3.96 -1.54,6.03 0,2.67 0.6,5 1.82,6.98 1.21,1.99 3.09,3.48 5.64,4.46 2.56,0.99 5.32,1.48 8.29,1.48 3.63,0 6.68,-0.67 9.2,-2.01 2.51,-1.34 4.21,-3.33 5.1,-5.97zm31.55 -4.27c0,-5.2 2.19,-9.28 6.56,-12.22 4.37,-2.94 10.01,-4.41 16.92,-4.41 4.53,0 8.6,0.69 12.24,2.08 3.63,1.38 6.4,3.31 8.31,5.79 1.9,2.47 2.86,5.27 2.86,8.41 0,3.18 -1,6.03 -3.01,8.53 -2.01,2.51 -4.85,4.41 -8.52,5.7 -3.68,1.29 -7.65,1.94 -11.91,1.94 -4.62,0 -8.74,-0.72 -12.38,-2.14 -3.63,-1.42 -6.39,-3.37 -8.26,-5.84 -1.87,-2.46 -2.81,-5.07 -2.81,-7.82zm6.71 0.07c0,3.78 1.59,6.75 4.76,8.92 3.17,2.17 7.15,3.26 11.94,3.26 4.88,0 8.89,-1.1 12.05,-3.29 3.15,-2.19 4.72,-5.3 4.72,-9.34 0,-2.55 -0.67,-4.78 -2.02,-6.68 -1.35,-1.9 -3.32,-3.37 -5.91,-4.42 -2.6,-1.04 -5.51,-1.57 -8.74,-1.57 -4.58,0 -8.53,1.01 -11.84,3.02 -3.31,2.02 -4.96,5.38 -4.96,10.09zm67.4 15.2l0 -31.38 9.72 0 11.59 22.22c1.07,2.07 1.85,3.61 2.34,4.65 0.56,-1.14 1.44,-2.82 2.62,-5.03l11.8 -21.83 8.68 0 0 31.38 -6.23 0 0 -26.25 -14.31 26.25 -5.84 0 -14.15 -26.74 0 26.74 -6.23 0zm108.27 -31.38l6.5 0 0 18.12c0,3.16 -0.56,5.66 -1.67,7.52 -1.12,1.85 -3.13,3.36 -6.02,4.52 -2.91,1.16 -6.71,1.75 -11.43,1.75 -4.58,0 -8.33,-0.5 -11.24,-1.52 -2.92,-1.02 -5,-2.48 -6.24,-4.4 -1.24,-1.92 -1.87,-4.54 -1.87,-7.87l0 -18.12 6.5 0 0 18.12c0,2.72 0.4,4.74 1.19,6.03 0.79,1.29 2.13,2.29 4.06,2.99 1.92,0.7 4.27,1.05 7.04,1.05 4.75,0 8.13,-0.69 10.15,-2.08 2.02,-1.39 3.02,-4.05 3.02,-7.99l0 -18.12zm36.28 31.38l0 -31.38 6.66 0 25.72 24.63 0 -24.63 6.23 0 0 31.38 -6.66 0 -25.71 -24.63 0 24.63 -6.23 0zm69.61 0l0 -31.38 6.5 0 0 31.38 -6.5 0zm36.94 0l0 -31.38 16.89 0c3.81,0 6.72,0.15 8.73,0.45 2.81,0.42 5.2,1.17 7.19,2.25 2.59,1.4 4.52,3.19 5.8,5.36 1.29,2.18 1.93,4.67 1.93,7.47 0,2.38 -0.43,4.49 -1.3,6.33 -0.87,1.84 -1.99,3.37 -3.34,4.57 -1.37,1.2 -2.85,2.15 -4.47,2.84 -1.61,0.69 -3.56,1.22 -5.84,1.58 -2.29,0.36 -4.92,0.53 -7.88,0.53l-17.68 0zm6.5 -3.68l10.45 0c3.23,0 5.76,-0.19 7.6,-0.58 1.84,-0.39 3.3,-0.93 4.39,-1.63 1.53,-0.99 2.72,-2.31 3.58,-3.98 0.85,-1.67 1.29,-3.68 1.29,-6.06 0,-3.29 -0.84,-5.81 -2.52,-7.58 -1.68,-1.77 -3.72,-2.95 -6.12,-3.55 -1.73,-0.43 -4.53,-0.64 -8.39,-0.64l-10.28 0 0 24.02zm52.8 3.68l18.8 -31.38 7.13 0 19.95 31.38 -7.38 0 -5.67 -9.51 -20.64 0 -5.32 9.51 -6.88 0zm14.1 -12.89l16.7 0 -5.11 -8.7c-1.54,-2.64 -2.7,-4.83 -3.51,-6.55 -0.67,2.05 -1.57,4.05 -2.7,6.04l-5.37 9.21zm52.17 12.89l0 -31.38 16.88 0c3.81,0 6.72,0.15 8.73,0.45 2.81,0.42 5.2,1.17 7.19,2.25 2.59,1.4 4.52,3.19 5.8,5.36 1.29,2.18 1.93,4.67 1.93,7.47 0,2.38 -0.43,4.49 -1.3,6.33 -0.87,1.84 -1.99,3.37 -3.34,4.57 -1.37,1.2 -2.85,2.15 -4.47,2.84 -1.61,0.69 -3.56,1.22 -5.84,1.58 -2.29,0.36 -4.92,0.53 -7.88,0.53l-17.68 0zm6.5 -3.68l10.45 0c3.23,0 5.76,-0.19 7.6,-0.58 1.84,-0.39 3.3,-0.93 4.39,-1.63 1.53,-0.99 2.73,-2.31 3.58,-3.98 0.85,-1.67 1.29,-3.68 1.29,-6.06 0,-3.29 -0.84,-5.81 -2.52,-7.58 -1.68,-1.77 -3.72,-2.95 -6.13,-3.55 -1.73,-0.43 -4.53,-0.64 -8.39,-0.64l-10.28 0 0 24.02zm130.22 3.68l0 -27.7 -16.15 0 0 -3.68 38.81 0 0 3.68 -16.15 0 0 27.7 -6.5 0zm47.28 0l0 -31.38 35.39 0 0 3.68 -28.88 0 0 9.64 27.04 0 0 3.68 -27.04 0 0 10.7 30.05 0 0 3.68 -36.55 0zm64.67 0l0 -31.38 21.72 0c4.37,0 7.69,0.28 9.96,0.85 2.27,0.56 4.09,1.56 5.44,2.98 1.36,1.42 2.03,3 2.03,4.73 0,2.23 -1.13,4.11 -3.38,5.63 -2.25,1.53 -5.72,2.49 -10.42,2.91 1.72,0.53 3.02,1.05 3.91,1.56 1.89,1.11 3.69,2.5 5.36,4.18l8.48 8.55 -8.1 0 -6.48 -6.53c-1.88,-1.89 -3.45,-3.33 -4.67,-4.33 -1.23,-1 -2.33,-1.7 -3.3,-2.1 -0.96,-0.39 -1.95,-0.67 -2.95,-0.83 -0.73,-0.09 -1.93,-0.15 -3.6,-0.15l-7.51 0 0 13.94 -6.5 0zm6.5 -17.53l13.92 0c2.97,0 5.27,-0.2 6.94,-0.59 1.67,-0.39 2.93,-1.02 3.79,-1.89 0.87,-0.86 1.3,-1.8 1.3,-2.81 0,-1.48 -0.83,-2.71 -2.51,-3.67 -1.68,-0.96 -4.32,-1.43 -7.94,-1.43l-15.49 0 0 10.39zm52.66 17.53l18.8 -31.38 7.13 0 19.95 31.38 -7.38 0 -5.67 -9.51 -20.64 0 -5.32 9.51 -6.88 0zm14.1 -12.89l16.7 0 -5.11 -8.7c-1.54,-2.64 -2.7,-4.83 -3.51,-6.55 -0.67,2.05 -1.57,4.05 -2.71,6.04l-5.37 9.21zm52.17 12.89l0 -31.38 18.5 0c3.25,0 5.74,0.1 7.46,0.3 2.41,0.26 4.43,0.74 6.06,1.46 1.63,0.72 2.94,1.73 3.94,3.02 0.99,1.29 1.48,2.72 1.48,4.27 0,2.66 -1.32,4.92 -3.98,6.76 -2.65,1.85 -7.45,2.77 -14.39,2.77l-12.57 0 0 12.8 -6.5 0zm6.5 -16.48l12.66 0c4.2,0 7.17,-0.5 8.93,-1.5 1.75,-1 2.63,-2.4 2.63,-4.22 0,-1.31 -0.51,-2.43 -1.55,-3.37 -1.04,-0.93 -2.41,-1.56 -4.1,-1.86 -1.1,-0.18 -3.12,-0.28 -6.05,-0.28l-12.54 0 0 11.22zm57.08 16.48l0 -31.38 35.39 0 0 3.68 -28.88 0 0 9.64 27.04 0 0 3.68 -27.04 0 0 10.7 30.05 0 0 3.68 -36.55 0zm96.64 -31.38l6.5 0 0 18.12c0,3.16 -0.56,5.66 -1.67,7.52 -1.12,1.85 -3.13,3.36 -6.02,4.52 -2.91,1.16 -6.71,1.75 -11.43,1.75 -4.58,0 -8.33,-0.5 -11.24,-1.52 -2.92,-1.02 -5,-2.48 -6.24,-4.4 -1.24,-1.92 -1.87,-4.54 -1.87,-7.87l0 -18.12 6.5 0 0 18.12c0,2.72 0.4,4.74 1.19,6.03 0.79,1.29 2.13,2.29 4.06,2.99 1.91,0.7 4.27,1.05 7.04,1.05 4.75,0 8.13,-0.69 10.15,-2.08 2.02,-1.39 3.02,-4.05 3.02,-7.99l0 -18.12zm47.57 31.38l0 -27.7 -16.15 0 0 -3.68 38.81 0 0 3.68 -16.15 0 0 27.7 -6.5 0zm48.23 0l0 -31.38 6.5 0 0 31.38 -6.5 0zm71.85 -11.01l6.5 1.05c-1.36,3.41 -3.8,6 -7.32,7.79 -3.52,1.79 -7.84,2.69 -12.94,2.69 -5.27,0 -9.56,-0.69 -12.87,-2.07 -3.31,-1.37 -5.82,-3.37 -7.54,-5.98 -1.72,-2.62 -2.59,-5.41 -2.59,-8.41 0,-3.27 0.97,-6.12 2.92,-8.55 1.95,-2.43 4.72,-4.28 8.32,-5.54 3.59,-1.26 7.55,-1.89 11.87,-1.89 4.9,0 9.02,0.8 12.35,2.4 3.34,1.6 5.67,3.84 6.98,6.73l-6.36 0.96c-1.13,-2.28 -2.79,-3.94 -4.94,-4.98 -2.16,-1.04 -4.87,-1.56 -8.15,-1.56 -3.75,0 -6.9,0.58 -9.42,1.73 -2.52,1.15 -4.3,2.71 -5.31,4.65 -1.03,1.95 -1.54,3.96 -1.54,6.03 0,2.67 0.6,5 1.82,6.98 1.21,1.99 3.09,3.48 5.64,4.46 2.56,0.99 5.32,1.48 8.29,1.48 3.63,0 6.69,-0.67 9.2,-2.01 2.51,-1.34 4.21,-3.33 5.1,-5.97zm24.39 11.01l18.8 -31.38 7.13 0 19.95 31.38 -7.38 0 -5.67 -9.51 -20.64 0 -5.32 9.51 -6.88 0zm14.1 -12.89l16.7 0 -5.11 -8.7c-1.54,-2.64 -2.7,-4.83 -3.51,-6.55 -0.67,2.05 -1.57,4.05 -2.7,6.04l-5.37 9.21z"/>
  <g id="_1717650867104">
   <path class="fil3 str2" d="M925.86 190.8c-23.11,0.26 -21.27,1.67 -29.25,-1.43 -15.51,-6.02 -26.71,-12.67 -37.24,-21.77 -13.45,-11.63 -40.73,-34.25 -46.57,-22.74 -5,9.86 22.32,27.83 32.74,34.68 5.12,3.37 24.92,13.04 22.1,19.32 -1.41,3.14 -10.11,1.27 -21.79,-2.88 -14.28,-5.07 -65.8,-29.75 -69.72,-14.59 -4.51,17.46 58.37,27.45 66.69,30 15.27,4.69 21.68,7.65 20.48,12.61 -0.88,3.63 -11.32,3.48 -25.1,2.02 -15.47,-1.64 -61.58,-7.91 -62.07,6.47 -0.42,12.16 36.22,11.24 61.21,9.55 11.87,-0.8 24.27,0.66 23.78,8.97 -0.36,6.09 -16.03,6.94 -33.2,10.44 -4.54,0.92 -24.98,3.85 -23.2,12.06 1.45,6.7 17.55,4.08 25.25,2.36 11.75,-2.61 21.65,-5.24 30.89,-6.34 10.17,-1.22 33.22,10.79 54.05,9.69 28.65,-1.52 37.91,-7.95 39.7,-14.71 1.93,-7.28 -0.98,-10.58 -0.59,-13.96 1.16,-10.18 7.16,-11.05 12.17,-29.85 2.19,-8.21 1.16,-16.34 -12.37,-41.18 -19.22,9.45 -23.37,10.73 -27.97,11.28z"/>
   <path class="fil3 str2" d="M927.51 163.29c9.36,7.76 10.1,10.1 16.27,19.11 0,0 2.81,-1.08 8.9,-4.64 -7.3,-11.81 -7.4,-12.35 -13.33,-22.42 -6.94,-11.8 -8.88,-26.28 -14.93,-16.21 -6.03,10.04 -3,19.12 3.09,24.18z"/>
  </g>
  <g id="_1717650870560">
   <path class="fil3 str2" d="M1048.79 144.04c-8.59,-21.45 -9.24,-19.23 -9.23,-27.79 0.01,-16.64 2.16,-29.48 6.84,-42.58 5.98,-16.74 17.23,-50.35 4.38,-51.64 -11,-1.1 -17.89,30.87 -20.51,43.06 -1.29,5.99 -3.15,27.95 -10.03,27.59 -3.43,-0.18 -4.84,-8.96 -5.19,-21.36 -0.43,-15.15 3.97,-72.1 -11.58,-70.28 -17.91,2.1 -4.51,64.35 -3.88,73.02 1.15,15.93 0.7,22.98 -4.35,23.65 -3.7,0.49 -7.33,-9.29 -10.95,-22.68 -4.06,-15.02 -14.87,-60.28 -28.45,-55.55 -11.49,4.01 2.6,37.83 13.21,60.52 5.04,10.78 8.15,22.87 0.22,25.42 -5.81,1.86 -12.26,-12.44 -21.73,-27.19 -2.5,-3.9 -12.61,-21.9 -19.63,-17.28 -5.72,3.77 2.54,17.84 6.92,24.4 6.68,10.01 12.71,18.3 17.07,26.51 4.81,9.04 1.94,34.87 10.49,53.9 11.77,26.17 21.11,32.47 28.06,31.7 7.49,-0.83 9.51,-4.73 12.8,-5.59 9.91,-2.59 12.89,2.68 32.23,0.56 8.45,-0.93 15.66,-4.82 33.94,-26.41 -15.76,-14.51 -18.45,-17.92 -20.63,-22.01z"/>
   <path class="fil3 str2" d="M1075.04 135.63c-3.86,11.53 -5.77,13.06 -11.94,22.07 0,0 2.02,2.23 7.55,6.62 8.37,-11.07 8.84,-11.36 16.09,-20.53 8.5,-10.74 21.3,-17.77 9.73,-19.77 -11.54,-2 -18.92,4.11 -21.43,11.61z"/>
  </g>
  <g id="_1717650869888">
   <path class="fil3 str3" d="M1129.74 249.55c17.09,-15.55 14.78,-15.39 22.8,-18.37 15.59,-5.81 28.38,-8.29 42.29,-8.49 17.78,-0.26 53.2,-1.49 49.9,-13.97 -2.82,-10.69 -35.17,-5.96 -47.51,-4.15 -6.07,0.89 -27.29,6.83 -29.36,0.26 -1.03,-3.28 6.7,-7.67 18.19,-12.34 14.04,-5.7 68.93,-21.52 61.78,-35.44 -8.23,-16.04 -61.85,18.29 -69.76,21.92 -14.53,6.65 -21.29,8.7 -23.68,4.2 -1.75,-3.3 6.14,-10.12 17.41,-18.19 12.65,-9.06 51.27,-35.02 42.08,-46.09 -7.77,-9.36 -34.53,15.68 -52.07,33.55 -8.33,8.49 -18.57,15.64 -23.73,9.11 -3.78,-4.79 7.36,-15.84 17.87,-29.87 2.78,-3.71 16.1,-19.48 9.32,-24.43 -5.54,-4.04 -15.82,8.62 -20.44,15.02 -7.04,9.76 -12.7,18.31 -18.86,25.27 -6.79,7.67 -31.99,14.02 -46.82,28.69 -20.4,20.18 -23.03,31.14 -19.88,37.38 3.4,6.73 7.76,7.25 9.72,10.04 5.9,8.38 2,13.01 10.75,30.39 3.82,7.59 10,12.98 36.62,22.55 8.08,-19.84 10.32,-23.56 13.4,-27.02z"/>
   <path class="fil3 str3" d="M1146.8 271.19c-12.15,0.42 -14.26,-0.83 -24.86,-3.46 0,0 -1.38,2.67 -3.56,9.38 13.3,3.97 13.74,4.3 24.87,7.89 13.03,4.2 24.1,13.73 21.93,2.19 -2.17,-11.51 -10.46,-16.28 -18.37,-16.01z"/>
  </g>
  <g id="_1717650872096">
   <path class="fil3 str2" d="M928.45 320.56c-5.84,22.36 -3.99,20.96 -9.08,27.84 -9.89,13.37 -19.26,22.43 -30.8,30.19 -14.76,9.92 -43.77,30.27 -34.2,38.93 8.2,7.42 32.73,-14.2 42.08,-22.45 4.6,-4.06 19.14,-20.61 24.46,-16.24 2.66,2.18 -1.43,10.09 -8.51,20.26 -8.65,12.44 -46.03,55.64 -32.44,63.41 15.65,8.95 41.86,-49.08 46.51,-56.43 8.55,-13.5 13.09,-18.9 17.56,-16.44 3.27,1.8 0.38,11.83 -4.66,24.75 -5.66,14.49 -23.86,57.32 -10.11,61.58 11.62,3.61 20.38,-31.98 25.34,-56.53 2.35,-11.66 7.03,-23.24 14.92,-20.58 5.78,1.95 2.47,17.29 1.32,34.78 -0.3,4.63 -2.87,25.11 5.52,25.56 6.84,0.37 8.56,-15.86 8.93,-23.74 0.57,-12.02 0.65,-22.27 2.02,-31.47 1.5,-10.13 19.16,-29.2 23.59,-49.59 6.08,-28.04 2.31,-38.66 -3.73,-42.17 -6.52,-3.78 -10.46,-1.84 -13.62,-3.11 -9.51,-3.8 -8.77,-9.82 -25.59,-19.6 -7.34,-4.27 -15.46,-5.43 -42.99,1.08 4.05,21.04 4.2,25.37 3.52,29.96z"/>
   <path class="fil3 str2" d="M902.35 311.73c9.96,-6.98 12.4,-7.08 22.72,-10.66 0,0 -0.3,-2.99 -2.13,-9.81 -13.31,3.93 -13.86,3.89 -25.14,6.95 -13.21,3.59 -27.69,1.64 -19.57,10.13 8.1,8.46 17.65,7.94 24.13,3.39z"/>
  </g>
  <g id="_1717650871760">
   <path class="fil3 str2" d="M1052.56 357.82c19.19,12.87 18.48,10.67 23.3,17.74 9.37,13.75 14.84,25.57 18.36,39.03 4.5,17.2 14.17,51.3 25.5,45.11 9.71,-5.3 -2.63,-35.58 -7.34,-47.13 -2.32,-5.68 -13.16,-24.86 -7.28,-28.44 2.94,-1.79 9.05,4.67 16.33,14.71 8.9,12.27 37.39,61.78 49.2,51.51 13.6,-11.83 -32.56,-55.68 -37.97,-62.49 -9.93,-12.51 -13.54,-18.59 -9.74,-21.99 2.78,-2.49 11.3,3.54 21.83,12.55 11.82,10.12 46.27,41.4 54.82,29.82 7.23,-9.79 -23.48,-29.77 -45.04,-42.53 -10.24,-6.06 -19.63,-14.29 -14.52,-20.86 3.74,-4.81 17.14,3.36 33.28,10.2 4.27,1.81 22.77,10.97 25.95,3.2 2.6,-6.34 -12.16,-13.3 -19.47,-16.25 -11.16,-4.5 -20.81,-7.95 -29.05,-12.27 -9.07,-4.75 -21.26,-27.71 -39.06,-38.6 -24.48,-14.97 -35.74,-14.91 -41.05,-10.36 -5.72,4.91 -5.19,9.27 -7.42,11.84 -6.72,7.73 -12.16,5.05 -26.94,17.71 -6.45,5.53 -10.21,12.81 -13.13,40.95 21.2,3.1 25.34,4.39 29.45,6.54z"/>
   <path class="fil3 str2" d="M1035.62 379.56c-3.32,-11.7 -2.6,-14.04 -2.59,-24.96 0,0 -2.92,-0.7 -9.97,-1.21 -0.67,13.86 -0.89,14.37 -1.71,26.03 -0.96,13.66 -7.57,26.69 3.12,21.82 10.65,-4.86 13.3,-14.06 11.15,-21.67z"/>
  </g>
 </g>
</svg>
