<svg width="164" height="56" viewBox="0 0 164 56" fill="none" xmlns="http://www.w3.org/2000/svg">
<path fill-rule="evenodd" clip-rule="evenodd" d="M109.221 41.8886C128.36 41.8886 148.285 44.0963 163.046 48.736C146.769 45.1814 128.379 43.8531 109.857 43.7034H109.24C88.5668 43.7034 69.7084 45.6117 55.415 48.736C68.773 44.5453 87.9307 41.8886 109.221 41.8886Z" fill="#009EE2"/>
<path d="M95.8443 48.7547C95.6198 48.6612 95.3017 48.6237 94.9276 48.6237C94.7031 48.6237 94.516 48.6612 94.3289 48.7173C94.1418 48.7734 93.9734 48.8483 93.8425 48.9231C93.6928 48.9979 93.5806 49.0915 93.4683 49.1663C93.3748 49.2598 93.2812 49.316 93.2438 49.3721C93.2064 49.2037 93.1315 49.054 93.0193 48.9418C92.907 48.8295 92.7387 48.7547 92.5329 48.6986C92.3271 48.6425 92.0651 48.6237 91.7471 48.6237C91.5787 48.6237 91.4103 48.6425 91.2607 48.6799C91.111 48.7173 90.98 48.7547 90.8678 48.8108C90.7555 48.867 90.6433 48.9231 90.5685 48.9792C90.4936 49.0353 90.4188 49.0728 90.3814 49.1102C90.344 49.1476 90.3065 49.1663 90.3065 49.1663L90.344 48.8108C90.344 48.7734 90.344 48.7547 90.3252 48.736C90.3065 48.7173 90.2878 48.7173 90.2691 48.7173H89.2963C89.2589 48.7173 89.2401 48.736 89.2214 48.736C89.2027 48.7547 89.184 48.7734 89.184 48.8108C89.184 48.8295 89.184 48.867 89.184 48.9231C89.184 48.9792 89.184 49.0541 89.1653 49.1476C89.1466 49.2411 89.1279 49.3534 89.0905 49.4843L88.0054 53.3383C88.0054 53.3757 88.0054 53.3945 88.0054 53.4132C88.0241 53.4319 88.0428 53.4319 88.0615 53.4319H89.0343C89.0718 53.4319 89.0905 53.4319 89.1092 53.4132C89.1279 53.3945 89.1466 53.3757 89.1653 53.3383L89.9137 50.7004C90.0259 50.3262 90.1943 50.0456 90.4562 49.8585C90.7181 49.6714 91.0549 49.5779 91.4852 49.5779C91.5974 49.5779 91.7097 49.5966 91.8032 49.6153C91.8968 49.6527 91.9529 49.7089 91.9903 49.7837C92.0277 49.8585 92.0464 49.9708 92.0464 50.1204C92.0464 50.2701 92.009 50.4572 91.9342 50.7004L91.1858 53.3383C91.1858 53.3757 91.1858 53.3945 91.1858 53.4132C91.2045 53.4319 91.2233 53.4319 91.242 53.4319H92.2148C92.2522 53.4319 92.2709 53.4319 92.2897 53.4132C92.3084 53.3945 92.3271 53.3757 92.3271 53.3383L93.0754 50.7004C93.1877 50.3262 93.356 50.0456 93.618 49.8585C93.8799 49.6714 94.2166 49.5779 94.6469 49.5779C94.7592 49.5779 94.8714 49.5966 94.965 49.6153C95.0585 49.6527 95.1147 49.7089 95.1521 49.7837C95.1895 49.8585 95.2082 49.9708 95.2082 50.1204C95.2082 50.2701 95.1708 50.4572 95.096 50.7004L94.3476 53.3383C94.3289 53.3757 94.3476 53.3945 94.3476 53.4132C94.3663 53.4319 94.385 53.4319 94.4037 53.4319H95.3766C95.3953 53.4319 95.4327 53.4319 95.4514 53.4132C95.4701 53.3945 95.4888 53.3757 95.4888 53.3383L96.2372 50.7004C96.3307 50.3449 96.4056 50.0456 96.4056 49.7837C96.4243 49.5218 96.3868 49.316 96.2933 49.1289C96.2372 48.9605 96.0688 48.8295 95.8443 48.7547Z" fill="#6F6F6E"/>
<path d="M86.939 48.8857C86.6584 48.7173 86.3029 48.6237 85.8539 48.6237C85.461 48.6237 85.1056 48.6612 84.8062 48.7547C84.5069 48.8295 84.245 48.9605 84.0204 49.1102C83.7959 49.2598 83.6089 49.4282 83.4405 49.634C83.2721 49.8398 83.1411 50.0643 83.0289 50.3075C82.9166 50.5507 82.8231 50.8127 82.7483 51.0746C82.6734 51.3365 82.6173 51.5984 82.5986 51.8416C82.5799 52.0849 82.5799 52.3094 82.636 52.5152C82.6921 52.7209 82.7857 52.8893 82.9353 53.039C83.085 53.1887 83.2908 53.3009 83.5527 53.3945C83.8147 53.4693 84.1701 53.5067 84.5817 53.5254C84.8062 53.5254 85.012 53.5067 85.1991 53.488C85.3862 53.4693 85.5546 53.4506 85.7042 53.4319C85.8539 53.4132 85.9661 53.3945 86.041 53.3757C86.1158 53.357 86.1719 53.357 86.1719 53.3383C86.2094 53.3383 86.2281 53.3196 86.2468 53.3009C86.2655 53.2822 86.2842 53.2635 86.2842 53.2448C86.2842 53.2448 86.3029 53.2261 86.3216 53.17C86.3403 53.1138 86.3777 53.0577 86.3964 52.9829C86.4339 52.908 86.4526 52.8332 86.49 52.7584C86.5274 52.6835 86.5461 52.6274 86.5648 52.5713C86.5835 52.5151 86.6022 52.4964 86.6022 52.4777C86.6022 52.4403 86.6022 52.4216 86.6022 52.4029C86.5835 52.3842 86.5648 52.3842 86.5461 52.3842C86.5274 52.3842 86.4713 52.4029 86.3777 52.4029C86.2655 52.4216 86.1345 52.4403 85.9849 52.4777C85.8165 52.4964 85.6481 52.5151 85.4423 52.5339C85.2552 52.5526 85.0494 52.5713 84.8623 52.5713C84.6191 52.5713 84.432 52.5526 84.2824 52.4964C84.1327 52.4403 84.0205 52.3655 83.9643 52.2906C83.8895 52.1971 83.8521 52.0849 83.8334 51.9539C83.8147 51.8229 83.8334 51.692 83.8521 51.5423H87.0887C87.1261 51.5423 87.1448 51.5236 87.1635 51.5049C87.1822 51.4862 87.2009 51.4675 87.2196 51.4488L87.3319 51.0746C87.4816 50.5133 87.5377 50.0456 87.4815 49.6901C87.3693 49.3347 87.2009 49.054 86.939 48.8857ZM86.2468 50.6069H84.0766C84.1327 50.4572 84.2075 50.3262 84.2824 50.1953C84.3572 50.0643 84.4507 49.9521 84.563 49.8585C84.6753 49.765 84.8062 49.6901 84.9746 49.634C85.143 49.5779 85.3301 49.5592 85.5733 49.5592C85.7416 49.5592 85.8726 49.5966 85.9849 49.6527C86.0784 49.7089 86.1532 49.7837 86.2094 49.8772C86.2468 49.9708 86.2842 50.083 86.2842 50.214C86.2842 50.3449 86.2655 50.4759 86.2468 50.6069Z" fill="#6F6F6E"/>
<path d="M101.532 48.7734C101.27 48.6799 100.952 48.6237 100.577 48.6237C100.222 48.6237 99.8665 48.6799 99.5484 48.7734C99.2304 48.867 98.931 49.0166 98.6504 49.2224C98.3885 49.4282 98.1453 49.6714 97.9395 49.9895C97.7337 50.2888 97.584 50.663 97.4531 51.0933C97.3408 51.5236 97.2847 51.8791 97.3221 52.1971C97.3408 52.4964 97.4343 52.7584 97.6027 52.9642C97.7524 53.17 97.9769 53.3196 98.2388 53.4132C98.5007 53.5067 98.8188 53.5628 99.193 53.5628C99.5484 53.5628 99.9039 53.5067 100.222 53.4132C100.54 53.3196 100.839 53.17 101.12 52.9642C101.382 52.7584 101.625 52.5151 101.831 52.1971C102.037 51.8978 102.186 51.5236 102.317 51.0933C102.43 50.663 102.486 50.3075 102.448 49.9895C102.411 49.6901 102.336 49.4282 102.168 49.2224C101.999 49.0166 101.793 48.867 101.532 48.7734ZM101.139 51.0746C101.045 51.3926 100.933 51.6545 100.802 51.8791C100.671 52.1036 100.484 52.2719 100.259 52.3842C100.035 52.4964 99.7729 52.5713 99.4549 52.5713C99.1368 52.5713 98.8936 52.5151 98.744 52.3842C98.5943 52.2719 98.5195 52.1036 98.5007 51.8791C98.482 51.6545 98.5194 51.3926 98.613 51.0746C98.7065 50.7565 98.8188 50.4946 98.9497 50.2701C99.0807 50.0456 99.2678 49.8772 99.4923 49.7463C99.7168 49.634 99.9787 49.5592 100.297 49.5592C100.615 49.5592 100.858 49.6153 101.008 49.7463C101.157 49.8585 101.232 50.0456 101.251 50.2701C101.27 50.4946 101.232 50.7565 101.139 51.0746Z" fill="#6F6F6E"/>
<path d="M83.2344 47.6135C83.3653 47.4077 83.4776 47.2393 83.5711 47.1271C83.646 47.0148 83.6834 46.94 83.7021 46.94C83.7021 46.9213 83.7021 46.8839 83.7021 46.8652C83.6834 46.8465 83.6647 46.8465 83.646 46.8465H82.5796C82.5609 46.8465 82.5422 46.8652 82.5235 46.8652C82.5047 46.8839 82.486 46.9026 82.4673 46.94L79.212 51.823L78.9314 52.4778L79.0249 51.823L78.6133 46.9213C78.6133 46.9026 78.5946 46.8652 78.5946 46.8465C78.5759 46.8278 78.5572 46.8278 78.5385 46.8278C78.5198 46.8278 78.4824 46.8278 78.4075 46.8465C78.3327 46.8465 78.2579 46.8652 78.1456 46.8652C78.0521 46.8839 77.9398 46.8839 77.8463 46.8839C77.7527 46.8839 77.6592 46.9026 77.6031 46.9026C77.5282 46.9026 77.5095 46.9026 77.4908 46.9026C77.4721 46.9026 77.4347 46.9213 77.416 46.9213C77.3973 46.94 77.3786 46.9587 77.3599 46.9961C77.3599 46.9961 77.3599 47.071 77.3786 47.1832C77.3973 47.2955 77.416 47.4639 77.4347 47.6696C77.4534 47.8754 77.4721 48.1187 77.5095 48.3806C77.5282 48.6425 77.5657 48.9418 77.6031 49.2412C77.6405 49.5405 77.6592 49.8586 77.6966 50.1766C77.734 50.4947 77.7715 50.8127 77.7902 51.112C77.8276 51.4114 77.8463 51.692 77.8837 51.9726C77.9024 52.2346 77.9398 52.4778 77.9585 52.6836C77.9773 52.8894 77.996 53.039 78.0147 53.17C78.0334 53.2822 78.0334 53.3384 78.0334 53.3384C78.0334 53.3758 78.0521 53.3945 78.0521 53.4132C78.0708 53.4319 78.0895 53.4319 78.1082 53.4319H79.2681C79.2869 53.4319 79.3243 53.4132 79.343 53.4132C79.3617 53.3945 79.3804 53.3758 79.3991 53.3384C79.3991 53.3384 79.4365 53.2822 79.5114 53.1513C79.5862 53.039 79.6984 52.8707 79.8294 52.6649C79.9791 52.4591 80.1287 52.2159 80.3158 51.9539C80.5029 51.692 80.69 51.3927 80.8958 51.0933C81.1016 50.7753 81.3261 50.4759 81.5319 50.1579C81.7564 49.8399 81.9622 49.5218 82.168 49.2038C82.3738 48.9044 82.5796 48.6051 82.748 48.3432C82.9163 48.0625 83.0847 47.8193 83.2344 47.6135Z" fill="#6F6F6E"/>
<path d="M117.041 48.7547C116.798 48.6799 116.48 48.6237 116.106 48.6237C115.919 48.6237 115.75 48.6612 115.582 48.6986C115.414 48.7547 115.264 48.8108 115.133 48.867C115.002 48.9231 114.89 48.9979 114.815 49.0353C114.74 49.0915 114.703 49.1102 114.703 49.1102C114.703 49.1102 114.703 49.0915 114.703 49.0353C114.703 48.9979 114.703 48.9418 114.703 48.9044C114.703 48.8483 114.703 48.8108 114.721 48.7921C114.721 48.7547 114.703 48.736 114.703 48.7173C114.684 48.6986 114.684 48.6986 114.647 48.6986H113.674C113.636 48.6986 113.618 48.7173 113.599 48.7173C113.58 48.736 113.561 48.7547 113.543 48.7921C113.543 48.8108 113.543 48.8483 113.543 48.9044C113.543 48.9605 113.543 49.0353 113.524 49.1476C113.505 49.2598 113.487 49.3908 113.431 49.5405L111.784 55.3776C111.784 55.3963 111.784 55.4337 111.803 55.4337C111.822 55.4524 111.84 55.4524 111.859 55.4711C111.859 55.4711 111.896 55.4711 111.953 55.4898C112.009 55.4898 112.084 55.5085 112.177 55.5085C112.271 55.5085 112.364 55.5272 112.439 55.5272C112.533 55.5459 112.607 55.5459 112.682 55.5459C112.738 55.5459 112.794 55.5459 112.794 55.5459C112.813 55.5459 112.851 55.5459 112.869 55.5272C112.888 55.5085 112.907 55.4898 112.925 55.4524L113.618 53.0016C113.674 53.0764 113.749 53.1325 113.861 53.2074C113.954 53.2822 114.085 53.3383 114.235 53.3945C114.385 53.4506 114.553 53.4693 114.74 53.4693C115.133 53.4693 115.47 53.4319 115.75 53.3383C116.031 53.2635 116.293 53.1325 116.499 52.9829C116.705 52.8332 116.873 52.6648 117.023 52.459C117.172 52.2532 117.285 52.0287 117.397 51.7855C117.49 51.5423 117.584 51.2804 117.659 51.0185C117.734 50.7565 117.79 50.4946 117.827 50.2514C117.864 50.0082 117.864 49.7837 117.846 49.5779C117.808 49.3721 117.734 49.2037 117.621 49.0541C117.472 48.9418 117.285 48.8295 117.041 48.7547ZM116.48 51.0746C116.424 51.2991 116.349 51.4862 116.274 51.6733C116.199 51.8603 116.087 52.01 115.975 52.1597C115.863 52.2906 115.713 52.4029 115.563 52.4777C115.395 52.5526 115.208 52.59 114.983 52.59C114.74 52.59 114.553 52.5526 114.403 52.4777C114.272 52.4029 114.16 52.2906 114.104 52.1597C114.048 52.0287 114.029 51.8603 114.048 51.6733C114.067 51.4862 114.085 51.2991 114.16 51.0746C114.235 50.8501 114.31 50.6443 114.403 50.4572C114.497 50.2701 114.609 50.1204 114.74 49.9895C114.871 49.8585 115.021 49.765 115.208 49.6901C115.395 49.6153 115.601 49.5779 115.844 49.5779C116.068 49.5779 116.237 49.6153 116.349 49.6901C116.461 49.765 116.555 49.8772 116.592 50.0082C116.63 50.1391 116.63 50.3075 116.611 50.4946C116.574 50.663 116.536 50.8688 116.48 51.0746Z" fill="#6F6F6E"/>
<path d="M122.803 48.7734C122.541 48.6799 122.223 48.6237 121.849 48.6237C121.475 48.6237 121.138 48.6799 120.82 48.7734C120.502 48.867 120.203 49.0166 119.941 49.2224C119.679 49.4282 119.436 49.6714 119.23 49.9895C119.024 50.2888 118.875 50.663 118.744 51.0933C118.631 51.5236 118.575 51.8791 118.613 52.1971C118.631 52.4964 118.725 52.7584 118.893 52.9642C119.043 53.17 119.267 53.3196 119.529 53.4132C119.791 53.5067 120.109 53.5628 120.483 53.5628C120.839 53.5628 121.194 53.5067 121.512 53.4132C121.831 53.3196 122.13 53.17 122.41 52.9642C122.672 52.7584 122.916 52.5151 123.121 52.1971C123.327 51.8978 123.477 51.5236 123.608 51.0933C123.72 50.663 123.776 50.3075 123.739 49.9895C123.701 49.6901 123.627 49.4282 123.458 49.2224C123.271 49.0166 123.065 48.867 122.803 48.7734ZM122.41 51.0746C122.317 51.3926 122.205 51.6545 122.074 51.8791C121.943 52.1036 121.756 52.2719 121.531 52.3842C121.307 52.4964 121.045 52.5713 120.727 52.5713C120.409 52.5713 120.165 52.5151 120.016 52.3842C119.866 52.2719 119.791 52.1036 119.773 51.8791C119.754 51.6545 119.791 51.3926 119.885 51.0746C119.978 50.7565 120.091 50.4946 120.222 50.2701C120.353 50.0456 120.54 49.8772 120.764 49.7463C120.989 49.634 121.251 49.5592 121.569 49.5592C121.887 49.5592 122.13 49.6153 122.28 49.7463C122.429 49.8585 122.504 50.0456 122.523 50.2701C122.541 50.4946 122.504 50.7565 122.41 51.0746Z" fill="#6F6F6E"/>
<path d="M139.567 48.7173L138.575 48.8109C138.538 48.8109 138.519 48.8109 138.5 48.8296C138.482 48.8483 138.463 48.867 138.444 48.9044L137.378 52.6648C137.34 52.7958 137.322 52.9081 137.303 53.0016C137.284 53.0951 137.284 53.17 137.284 53.2448C137.284 53.3009 137.284 53.3384 137.284 53.3384C137.284 53.3758 137.303 53.3945 137.303 53.4132C137.322 53.4319 137.322 53.4319 137.34 53.4319H138.313C138.351 53.4319 138.369 53.4319 138.388 53.4132C138.407 53.3945 138.425 53.3758 138.425 53.3384C138.425 53.3196 138.425 53.3009 138.425 53.2448C138.425 53.1887 138.425 53.1138 138.444 53.0203C138.463 52.9268 138.482 52.8145 138.519 52.6836L139.604 48.8296C139.604 48.7922 139.604 48.7734 139.604 48.7547C139.623 48.736 139.604 48.7173 139.567 48.7173Z" fill="#6F6F6E"/>
<path d="M107.332 48.8108C107.332 48.8108 107.294 48.7921 107.219 48.7734C107.145 48.7547 107.032 48.736 106.901 48.7173C106.77 48.6986 106.602 48.6799 106.434 48.6612C106.246 48.6425 106.059 48.6425 105.835 48.6237C105.423 48.6237 105.087 48.6799 104.806 48.7921C104.507 48.9044 104.282 49.0541 104.114 49.2411C103.945 49.4469 103.814 49.6714 103.74 49.9334C103.683 50.1579 103.665 50.3449 103.683 50.5133C103.702 50.6817 103.758 50.8127 103.852 50.9436C103.945 51.0559 104.058 51.1681 104.189 51.243C104.32 51.3365 104.469 51.4113 104.619 51.4675C104.769 51.5236 104.937 51.5797 105.105 51.6358C105.255 51.6733 105.386 51.7294 105.479 51.7855C105.573 51.8416 105.648 51.8978 105.685 51.9539C105.723 52.0287 105.741 52.1036 105.704 52.1971C105.667 52.3281 105.61 52.4216 105.498 52.4777C105.386 52.5339 105.236 52.5713 105.03 52.5713C104.862 52.5713 104.675 52.5526 104.507 52.5339C104.338 52.5151 104.17 52.4964 104.02 52.459C103.871 52.4403 103.721 52.4029 103.609 52.3842C103.478 52.3655 103.384 52.3281 103.309 52.3094C103.234 52.2906 103.197 52.2906 103.178 52.2719C103.141 52.2719 103.122 52.2719 103.103 52.2906C103.085 52.3094 103.066 52.3281 103.066 52.3655C103.066 52.3655 103.066 52.4029 103.047 52.459C103.029 52.5151 103.029 52.5713 103.01 52.6461C102.991 52.7209 102.991 52.7958 102.972 52.8706C102.954 52.9454 102.954 53.0016 102.954 53.0577C102.954 53.1138 102.935 53.1325 102.935 53.1325C102.935 53.1512 102.935 53.1699 102.954 53.1887C102.972 53.2074 102.991 53.2261 103.01 53.2261C103.01 53.2261 103.047 53.2448 103.141 53.2635C103.216 53.3009 103.347 53.3196 103.496 53.357C103.646 53.3945 103.833 53.4319 104.058 53.4506C104.263 53.488 104.507 53.488 104.787 53.488C105.161 53.488 105.498 53.4319 105.779 53.3196C106.078 53.2074 106.303 53.0577 106.508 52.8519C106.696 52.6461 106.826 52.4216 106.901 52.1784C106.957 51.9539 106.976 51.7668 106.957 51.5984C106.939 51.43 106.883 51.2991 106.789 51.1681C106.696 51.0559 106.583 50.9436 106.452 50.8688C106.321 50.7752 106.172 50.7191 106.022 50.6443C105.872 50.5882 105.704 50.532 105.536 50.4759C105.386 50.4385 105.255 50.3824 105.161 50.3262C105.068 50.2701 104.993 50.214 104.937 50.1579C104.899 50.083 104.881 50.0082 104.918 49.9146C104.956 49.8024 105.03 49.6901 105.143 49.634C105.255 49.5779 105.405 49.5405 105.61 49.5405C105.816 49.5405 106.022 49.5592 106.19 49.5779C106.377 49.5966 106.546 49.6153 106.696 49.634C106.845 49.6527 106.957 49.6714 107.051 49.6901C107.145 49.7089 107.182 49.7088 107.201 49.7276C107.238 49.7276 107.257 49.7276 107.275 49.7089C107.294 49.6901 107.313 49.6714 107.313 49.634C107.313 49.634 107.313 49.5966 107.332 49.5405C107.332 49.4843 107.35 49.4282 107.35 49.3534C107.369 49.2786 107.369 49.2037 107.388 49.1289C107.406 49.054 107.406 48.9979 107.406 48.9418C107.406 48.9044 107.425 48.867 107.425 48.867C107.425 48.8483 107.425 48.8295 107.406 48.8108C107.388 48.8295 107.369 48.8295 107.332 48.8108Z" fill="#6F6F6E"/>
<path d="M128.697 48.7173C128.697 48.7173 128.678 48.7173 128.641 48.6986C128.603 48.6799 128.547 48.6799 128.491 48.6612C128.435 48.6425 128.36 48.6425 128.285 48.6238C128.21 48.6238 128.136 48.605 128.061 48.605C127.836 48.605 127.63 48.6425 127.443 48.6986C127.256 48.7547 127.107 48.8108 126.976 48.9044C126.845 48.9792 126.732 49.0541 126.639 49.1476L126.658 48.8108C126.658 48.7734 126.658 48.7547 126.639 48.736C126.62 48.7173 126.601 48.7173 126.583 48.7173H125.61C125.572 48.7173 125.554 48.736 125.535 48.736C125.516 48.7547 125.498 48.7734 125.479 48.8108C125.479 48.8295 125.479 48.867 125.479 48.9231C125.479 48.9792 125.479 49.0541 125.46 49.1476C125.442 49.2411 125.423 49.3534 125.385 49.4844L124.3 53.3383C124.3 53.3757 124.3 53.3945 124.3 53.4132C124.319 53.4319 124.338 53.4319 124.356 53.4319H125.329C125.367 53.4319 125.385 53.4319 125.404 53.4132C125.423 53.3945 125.442 53.3757 125.46 53.3383L126.209 50.7004C126.321 50.3262 126.508 50.0456 126.77 49.8585C127.032 49.6714 127.369 49.5779 127.78 49.5779C127.818 49.5779 127.892 49.5779 127.967 49.5966C128.042 49.5966 128.117 49.6153 128.21 49.634C128.285 49.6527 128.36 49.6527 128.416 49.6714C128.472 49.6901 128.51 49.6901 128.528 49.6901C128.566 49.6901 128.585 49.6901 128.603 49.6714C128.622 49.6527 128.641 49.634 128.659 49.5966C128.659 49.5779 128.659 49.5592 128.678 49.5031C128.678 49.4469 128.697 49.3908 128.716 49.316C128.734 49.2411 128.734 49.1663 128.753 49.0915C128.772 49.0166 128.772 48.9605 128.79 48.9044C128.79 48.867 128.809 48.8295 128.809 48.8295C128.809 48.8108 128.809 48.7921 128.79 48.7734C128.734 48.736 128.716 48.7173 128.697 48.7173Z" fill="#6F6F6E"/>
<path d="M139.959 46.8277C139.866 46.7716 139.772 46.7342 139.641 46.7342C139.51 46.7342 139.398 46.7716 139.267 46.8277C139.155 46.8839 139.042 46.9587 138.968 47.0709C138.874 47.1645 138.818 47.2767 138.781 47.4077C138.743 47.52 138.743 47.6509 138.781 47.7445C138.818 47.838 138.874 47.9128 138.949 47.9877C139.042 48.0438 139.136 48.0812 139.267 48.0812C139.398 48.0812 139.51 48.0438 139.641 47.9877C139.753 47.9315 139.866 47.8567 139.94 47.7445C140.034 47.6509 140.09 47.5387 140.128 47.4077C140.165 47.2767 140.165 47.1645 140.128 47.0709C140.109 46.9774 140.053 46.8839 139.959 46.8277Z" fill="#6F6F6E"/>
<path d="M136.985 48.7173H136.031L136.536 46.9213C136.536 46.9026 136.536 46.8652 136.536 46.8465C136.517 46.8278 136.498 46.8278 136.48 46.8278L135.488 46.9213C135.451 46.9213 135.432 46.94 135.413 46.94C135.395 46.9587 135.376 46.9774 135.376 47.0148L134.889 48.7173H133.917C133.879 48.7173 133.86 48.736 133.842 48.736C133.823 48.7547 133.804 48.7735 133.804 48.8109C133.804 48.8109 133.804 48.8483 133.786 48.9044C133.786 48.9605 133.767 49.0167 133.748 49.0915C133.729 49.1663 133.729 49.2412 133.711 49.316C133.692 49.3908 133.692 49.447 133.692 49.5031C133.692 49.5592 133.673 49.5779 133.673 49.5779C133.673 49.5966 133.673 49.6341 133.692 49.6528C133.711 49.6715 133.729 49.6715 133.748 49.6715H134.609L134.048 51.6546C133.973 51.9165 133.935 52.1597 133.917 52.3842C133.898 52.6087 133.935 52.8145 133.991 52.9829C134.066 53.1513 134.178 53.2822 134.347 53.3945C134.515 53.488 134.758 53.5442 135.058 53.5442C135.189 53.5442 135.32 53.5442 135.432 53.5255C135.544 53.5067 135.656 53.488 135.731 53.488C135.806 53.4693 135.844 53.4693 135.862 53.4693C135.9 53.4693 135.918 53.4506 135.937 53.4319C135.956 53.4132 135.975 53.3945 135.975 53.3571C135.975 53.3384 135.974 53.3197 135.993 53.2635C135.993 53.2074 136.012 53.1513 136.031 53.0764C136.049 53.0016 136.049 52.9268 136.068 52.8519C136.087 52.7771 136.087 52.721 136.087 52.6649C136.087 52.6274 136.105 52.59 136.105 52.59C136.105 52.5713 136.105 52.5526 136.087 52.5339C136.068 52.5152 136.049 52.5152 136.031 52.5152C136.012 52.5152 135.993 52.5152 135.937 52.5339C135.881 52.5526 135.844 52.5526 135.769 52.5713C135.713 52.59 135.638 52.59 135.582 52.6087C135.525 52.6087 135.469 52.6274 135.413 52.6274C135.245 52.6274 135.151 52.5526 135.114 52.3842C135.076 52.2158 135.095 51.9913 135.189 51.6733L135.75 49.6902H136.816C136.854 49.6902 136.873 49.6902 136.891 49.6715C136.91 49.6528 136.929 49.6341 136.929 49.5966C136.929 49.5966 136.929 49.5592 136.947 49.5031C136.947 49.447 136.966 49.3908 136.985 49.316C137.003 49.2412 137.003 49.1663 137.022 49.0915C137.041 49.0167 137.041 48.9605 137.041 48.9044C137.041 48.8483 137.06 48.8296 137.06 48.8296C137.06 48.7922 137.06 48.7735 137.041 48.7547C137.041 48.736 137.022 48.7173 136.985 48.7173Z" fill="#6F6F6E"/>
<path d="M37.3801 0C38.2968 1.21606 39.12 2.52567 39.8122 3.8914C43.7597 8.45631 46.1545 14.4244 46.1545 20.935C46.1545 35.3406 34.4615 47.0335 20.0559 47.0335C19.2888 47.0335 18.5218 46.9961 17.7734 46.9213C19.794 47.4264 21.908 47.7071 24.0783 47.7071C38.2781 47.7071 49.7839 36.2012 49.7839 22.0014C49.7839 12.6658 44.8074 4.50878 37.3801 0Z" fill="#007EBB"/>
<path d="M38.914 2.28244C41.3087 6.26738 42.6931 10.9445 42.6931 15.921C42.6931 30.5512 30.8319 42.4125 16.2017 42.4125C10.1027 42.4125 4.49008 40.3545 0 36.8934C4.77071 43.0673 12.2542 47.0522 20.6543 47.0522C35.06 47.0522 46.7529 35.3593 46.7529 20.9537C46.7716 13.6199 43.7595 7.01573 38.914 2.28244Z" fill="#40BFEF"/>
<path d="M17.4739 0.224518C8.47508 0.224518 1.17871 7.52089 1.17871 16.5198C1.17871 25.5186 8.47508 32.815 17.4739 32.815C26.4728 32.815 33.7692 25.5186 33.7692 16.5198C33.7692 7.52089 26.4728 0.224518 17.4739 0.224518ZM24.3587 16.6507C22.1324 16.6507 20.3364 14.8547 20.3364 12.6284C20.3364 10.402 22.1324 8.60599 24.3587 8.60599C26.5851 8.60599 28.3811 10.402 28.3811 12.6284C28.3811 14.836 26.5851 16.6507 24.3587 16.6507Z" fill="#1D1D1B"/>
<path d="M61.0837 1.79602C61.0837 1.90827 61.0276 2.00181 60.9153 2.07665L60.7282 2.1889V2.17019L60.6534 2.20761C60.6347 2.22632 60.5973 2.22632 60.5598 2.22632C60.4476 2.22632 60.3541 2.1889 60.2792 2.09535C59.8489 1.42184 59.0632 1.08509 57.9406 1.08509C56.9678 1.08509 56.2007 1.36572 55.6208 1.94569C55.0595 2.52565 54.7602 3.29271 54.7602 4.24685C54.7602 5.20099 55.0221 5.96804 55.5646 6.5293C56.1072 7.10927 56.8555 7.3899 57.791 7.3899C58.8761 7.3899 59.6618 7.03444 60.167 6.34222C60.2231 6.24867 60.3166 6.21126 60.4289 6.21126C60.5224 6.21126 60.5973 6.22997 60.6347 6.28609L60.616 6.26738L60.8592 6.43576L60.8966 6.71639C60.9153 6.77252 60.8966 6.80993 60.8592 6.84735C60.1857 7.78278 59.1567 8.23179 57.791 8.23179C56.5936 8.23179 55.6395 7.87633 54.9285 7.1654C54.2363 6.45447 53.8809 5.50033 53.8809 4.26556C53.8809 3.01208 54.2363 2.02052 54.966 1.29088C55.6956 0.561246 56.6684 0.187073 57.9032 0.187073C59.3251 0.187073 60.3353 0.63608 60.9714 1.5528L60.9527 1.5341C61.0463 1.64635 61.0837 1.70247 61.0837 1.79602Z" fill="#1D1D1B"/>
<path d="M63.1977 7.82021C63.1977 7.89504 63.1603 7.96988 63.0855 8.04471C63.0106 8.10084 62.9358 8.13825 62.861 8.13825H62.7487C62.5242 8.13825 62.4307 8.026 62.4307 7.82021V0.823174C62.4307 0.59867 62.5429 0.505127 62.7487 0.505127H62.861C62.9358 0.505127 63.0106 0.542544 63.0855 0.617379C63.1603 0.692213 63.1977 0.767048 63.1977 0.841883V7.82021Z" fill="#1D1D1B"/>
<path d="M70.681 7.87635C70.681 7.96989 70.6436 8.04473 70.5875 8.10085C70.5314 8.15698 70.4565 8.1944 70.363 8.1944H70.1572C69.9514 8.1944 69.8579 8.08214 69.8579 7.87635V4.5275C69.8579 4.0972 69.7269 3.77916 69.4837 3.55465C69.2218 3.33015 68.885 3.2179 68.4547 3.2179C67.9309 3.2179 67.538 3.38627 67.2386 3.70432C66.958 4.04108 66.8084 4.47138 66.8084 5.01393V7.85764C66.8084 7.95118 66.7709 8.02602 66.7148 8.08214C66.6587 8.13827 66.5838 8.17569 66.4903 8.17569H66.2658C66.06 8.17569 65.9478 8.06344 65.9478 7.85764V2.80631C65.9478 2.73147 65.9852 2.63793 66.0413 2.5818C66.0974 2.50697 66.1723 2.48826 66.2658 2.48826H66.4903C66.5651 2.48826 66.64 2.52568 66.6961 2.60051C66.7709 2.67535 66.7896 2.75018 66.7896 2.82501V2.95598C66.8271 2.91856 66.9019 2.86243 67.0141 2.7876C67.0329 2.76889 67.0516 2.76889 67.0703 2.76889C67.4444 2.50697 67.9122 2.37601 68.436 2.37601C69.0721 2.37601 69.5959 2.54438 69.9888 2.88114L69.9701 2.86243C70.4191 3.2366 70.6623 3.76045 70.6623 4.41525V7.87635H70.681Z" fill="#1D1D1B"/>
<path d="M72.4028 1.38445L72.3654 1.478C72.2905 1.66508 72.1783 1.75863 72.0099 1.75863C71.7854 1.75863 71.6545 1.64638 71.6545 1.40316V0.579982C71.7293 0.33677 71.8415 0.224518 72.0099 0.224518C72.1409 0.224518 72.2718 0.33677 72.4028 0.561273V1.38445ZM72.4028 7.85765C72.4028 7.93248 72.3654 8.00732 72.2905 8.08215C72.2157 8.15698 72.1409 8.1944 72.066 8.1944H71.9538C71.748 8.1944 71.6357 8.08215 71.6357 7.87635V2.67535C71.6357 2.45085 71.748 2.3573 71.9538 2.3573H72.066C72.1596 2.3573 72.2344 2.39472 72.2905 2.45085C72.3467 2.52568 72.3841 2.60052 72.3841 2.67535V7.85765H72.4028Z" fill="#1D1D1B"/>
<path d="M78.7447 6.43578C78.6325 7.03446 78.3144 7.52088 77.7906 7.87635L77.7158 7.89506C77.2855 8.15698 76.799 8.28794 76.2191 8.28794C75.3772 8.28794 74.685 8.02602 74.1985 7.48347C73.6934 6.94092 73.4502 6.26741 73.4502 5.44423C73.4502 4.54621 73.7121 3.79786 74.2173 3.2366C74.7411 2.65664 75.4333 2.37601 76.3313 2.37601C76.8926 2.37601 77.3603 2.50697 77.7719 2.7876C78.2583 3.10564 78.5577 3.51723 78.6699 4.05979V4.11591C78.6699 4.24687 78.6325 4.34042 78.5389 4.39654L78.3144 4.5275C78.277 4.54621 78.2209 4.56492 78.1648 4.56492C77.9964 4.56492 77.8841 4.49008 77.8467 4.32171C77.6783 3.59207 77.1732 3.2366 76.3313 3.2366C75.6765 3.2366 75.1527 3.4424 74.8159 3.85399C74.4792 4.26558 74.2921 4.78942 74.2921 5.46293C74.2921 6.08032 74.4605 6.56674 74.7785 6.92221C75.1153 7.29638 75.6017 7.48347 76.2004 7.48347C76.612 7.48347 76.9487 7.38992 77.248 7.20284C77.5848 6.99704 77.7906 6.71641 77.8654 6.34224C77.9403 6.11774 78.0525 6.00548 78.2022 6.00548C78.2396 6.00548 78.2957 6.02419 78.3332 6.0429L78.3144 6.02419L78.5764 6.13644L78.7447 6.43578Z" fill="#1D1D1B"/>
<path d="M84.75 7.87635C84.75 8.08215 84.6378 8.1944 84.432 8.1944H84.2075C84.0017 8.1944 83.8894 8.08215 83.8894 7.87635V7.53959C83.4217 8.04473 82.7856 8.28794 81.9812 8.28794C81.1206 8.28794 80.4658 8.00731 79.9793 7.42734C79.5303 6.9035 79.2871 6.19257 79.2871 5.33197C79.2871 4.47138 79.5303 3.77916 79.998 3.23661C80.5219 2.65664 81.1954 2.3573 82.0186 2.3573C82.8043 2.3573 83.4217 2.60051 83.8894 3.10565V2.69406C83.8894 2.61922 83.9268 2.52568 83.983 2.46955C84.0391 2.39472 84.1139 2.37601 84.2075 2.37601H84.432C84.6378 2.37601 84.75 2.48826 84.75 2.69406V7.87635ZM83.9081 5.35068C83.9081 4.69588 83.7585 4.19075 83.4404 3.81657C83.1224 3.40498 82.636 3.2179 81.9812 3.2179C81.4012 3.2179 80.9335 3.42369 80.5967 3.85399C80.2787 4.24687 80.129 4.75201 80.129 5.35068C80.129 5.96807 80.26 6.45449 80.5406 6.82867C80.5593 6.82867 80.578 6.84737 80.5967 6.86608C80.9148 7.25897 81.3825 7.46476 81.9624 7.46476C82.5424 7.46476 83.0101 7.25897 83.3656 6.86608C83.7398 6.4732 83.9081 5.96807 83.9081 5.35068Z" fill="#1D1D1B"/>
<path d="M94.647 7.85764C94.647 8.08214 94.5348 8.17569 94.329 8.17569H94.1045C93.8987 8.17569 93.7864 8.06343 93.7864 7.85764V7.52088C93.3 8.04472 92.6639 8.30665 91.8781 8.30665C91.0362 8.30665 90.344 7.9886 89.8202 7.3525C89.3899 6.80995 89.1841 6.11773 89.1841 5.27585C89.1841 4.39654 89.4086 3.68561 89.8763 3.12435C90.3627 2.50697 91.0549 2.20763 91.8968 2.20763C92.6639 2.20763 93.2813 2.46955 93.7864 2.99339V0.636101C93.7864 0.430306 93.8987 0.318054 94.1045 0.318054H94.329C94.5348 0.318054 94.647 0.430306 94.647 0.636101V7.85764ZM93.7864 5.27585C93.7864 4.62104 93.6367 4.0972 93.3374 3.70432C93.0006 3.27402 92.5142 3.06823 91.8781 3.06823C91.2794 3.06823 90.8117 3.29273 90.475 3.74174C90.1756 4.13462 90.026 4.65846 90.026 5.27585C90.026 5.89323 90.1756 6.39836 90.4563 6.79125C90.475 6.79125 90.4937 6.80995 90.5124 6.82866C90.8304 7.24025 91.2982 7.46476 91.8781 7.46476C92.4768 7.46476 92.9445 7.24025 93.3 6.80995C93.6367 6.39836 93.7864 5.89323 93.7864 5.27585Z" fill="#1D1D1B"/>
<path d="M101.008 5.36939C101.008 5.5939 100.896 5.68744 100.69 5.68744L96.3495 5.70615C96.4431 6.88479 97.0792 7.46476 98.2391 7.46476C98.632 7.46476 98.9687 7.37122 99.2868 7.18413C99.6422 6.99704 99.8667 6.71641 99.9977 6.37966L99.979 6.39837C100.016 6.22999 100.11 6.15516 100.278 6.15516H100.503C100.727 6.15516 100.821 6.26741 100.821 6.4732V6.52933C100.465 7.70797 99.5861 8.28794 98.2017 8.28794C97.3037 8.28794 96.6114 8.02602 96.1624 7.48347C95.7134 6.94092 95.4702 6.22999 95.4702 5.33197C95.4702 4.47138 95.7134 3.77916 96.2186 3.2179C96.7424 2.63793 97.4159 2.3573 98.2578 2.3573C99.0997 2.3573 99.7545 2.60051 100.26 3.10565C100.765 3.61078 101.008 4.28429 101.008 5.12618V5.36939ZM100.091 4.86426C100.035 4.41525 99.8667 4.04108 99.6048 3.74174C99.2868 3.38628 98.8378 3.2179 98.2578 3.2179C97.734 3.2179 97.3037 3.36757 96.9856 3.66691C96.6489 3.96624 96.4431 4.35912 96.3682 4.88297H100.091V4.86426Z" fill="#1D1D1B"/>
<path d="M113.075 4.26558C113.075 4.88296 112.981 5.44422 112.813 5.93065C112.607 6.45449 112.345 6.88479 112.009 7.22154C111.672 7.5583 111.242 7.82022 110.736 8.00731C110.25 8.19439 109.707 8.28793 109.071 8.28793C107.818 8.28793 106.845 7.93247 106.153 7.22154C105.442 6.51061 105.086 5.53776 105.086 4.26558C105.086 3.0121 105.442 2.05796 106.172 1.38444H106.153C106.826 0.710933 107.799 0.355469 109.071 0.355469C110.306 0.355469 111.279 0.692224 111.99 1.38444C112.72 2.09537 113.075 3.04951 113.075 4.26558ZM112.196 4.26558C112.196 2.78759 111.597 1.83345 110.418 1.42186C110.026 1.2909 109.595 1.21607 109.09 1.21607C108.099 1.21607 107.331 1.47799 106.789 2.00183C106.246 2.52567 105.966 3.27402 105.966 4.26558C105.966 5.20101 106.228 5.96806 106.751 6.52932C106.77 6.52932 106.789 6.52932 106.789 6.54803C107.369 7.128 108.117 7.40863 109.09 7.40863C110.063 7.40863 110.811 7.128 111.373 6.54803C111.915 5.98677 112.196 5.21972 112.196 4.26558Z" fill="#1D1D1B"/>
<path d="M117.023 1.06639L116.836 1.27218C116.798 1.29089 116.761 1.3096 116.723 1.3096C115.62 1.3096 115.077 1.77732 115.077 2.71275V2.91855H115.844C115.919 2.91855 115.994 2.95596 116.05 3.0308C116.106 3.10563 116.144 3.18047 116.144 3.2553V3.4798C116.144 3.57335 116.106 3.64818 116.05 3.70431C115.994 3.76043 115.919 3.79785 115.844 3.79785H115.077V7.89505C115.077 8.11955 114.984 8.21309 114.778 8.21309H114.572C114.366 8.21309 114.273 8.10084 114.273 7.89505V3.77914H113.898C113.693 3.77914 113.599 3.66689 113.599 3.4611V3.23659C113.599 3.14305 113.637 3.06821 113.693 3.01209C113.749 2.93725 113.824 2.91855 113.898 2.91855H114.273V2.71275C114.273 1.21606 115.096 0.467712 116.723 0.467712C116.929 0.467712 117.023 0.579964 117.023 0.785759V1.06639Z" fill="#1D1D1B"/>
<path d="M119.137 3.2179C119.137 3.29273 119.1 3.38628 119.043 3.4424C118.987 3.51724 118.912 3.53595 118.838 3.53595H118.22V7.85764C118.22 7.93248 118.183 8.00731 118.127 8.08215C118.071 8.15698 117.996 8.1944 117.921 8.1944H117.753C117.678 8.1944 117.603 8.15698 117.547 8.10086C117.491 8.02602 117.453 7.95119 117.453 7.87635V3.55465H116.855C116.78 3.55465 116.705 3.51724 116.649 3.46111C116.593 3.38628 116.555 3.31144 116.555 3.23661V3.03081C116.555 2.80631 116.649 2.71277 116.836 2.71277H117.434V1.40316C117.434 1.17866 117.528 1.08511 117.715 1.08511H117.902C117.977 1.08511 118.052 1.12253 118.108 1.19737C118.164 1.2722 118.202 1.34703 118.202 1.42187V2.71277H118.819C119.006 2.71277 119.118 2.82502 119.118 3.03081V3.2179H119.137Z" fill="#1D1D1B"/>
<path d="M125.011 7.87635C125.011 8.08215 124.899 8.1944 124.693 8.1944H124.469C124.263 8.1944 124.151 8.08215 124.151 7.87635V7.53959C123.683 8.04473 123.047 8.28794 122.242 8.28794C121.382 8.28794 120.727 8.00731 120.241 7.42734C119.792 6.9035 119.548 6.19257 119.548 5.33197C119.548 4.47138 119.792 3.77916 120.259 3.23661C120.783 2.65664 121.457 2.3573 122.28 2.3573C123.066 2.3573 123.683 2.60051 124.151 3.10565V2.69406C124.151 2.61922 124.188 2.52568 124.244 2.46955C124.3 2.39472 124.375 2.37601 124.469 2.37601H124.693C124.899 2.37601 125.011 2.48826 125.011 2.69406V7.87635ZM124.169 5.35068C124.169 4.69588 124.02 4.19075 123.702 3.81657C123.384 3.40498 122.897 3.2179 122.261 3.2179C121.681 3.2179 121.213 3.42369 120.877 3.85399C120.559 4.24687 120.409 4.75201 120.409 5.35068C120.409 5.96807 120.54 6.45449 120.821 6.82867C120.839 6.82867 120.858 6.84737 120.877 6.86608C121.195 7.25897 121.662 7.46476 122.242 7.46476C122.822 7.46476 123.29 7.25897 123.646 6.86608C124.001 6.4732 124.169 5.96807 124.169 5.35068Z" fill="#1D1D1B"/>
<path d="M126.732 7.82021C126.732 7.89504 126.695 7.96988 126.62 8.04471C126.545 8.10084 126.47 8.13825 126.395 8.13825H126.302C126.077 8.13825 125.984 8.026 125.984 7.82021V0.823174C125.984 0.59867 126.096 0.505127 126.302 0.505127H126.414C126.489 0.505127 126.564 0.542544 126.639 0.617379C126.714 0.692213 126.751 0.767048 126.751 0.841883V7.82021H126.732Z" fill="#1D1D1B"/>
<path d="M136.068 7.87635C136.068 7.96989 136.031 8.04473 135.956 8.10085C135.881 8.15698 135.806 8.1944 135.731 8.1944H135.507C135.282 8.1944 135.189 8.08215 135.189 7.87635V4.5275C135.189 3.6482 134.777 3.2179 133.954 3.2179C133.505 3.2179 133.15 3.34886 132.869 3.61078C132.588 3.8727 132.457 4.22816 132.457 4.67717V7.87635C132.457 8.08215 132.345 8.1944 132.121 8.1944H131.896C131.672 8.1944 131.578 8.08215 131.578 7.87635V4.5275C131.578 3.6482 131.166 3.2179 130.325 3.2179C129.838 3.2179 129.464 3.40498 129.183 3.77916C128.94 4.0972 128.828 4.5275 128.828 5.01393V7.85764C128.828 8.06344 128.716 8.17569 128.51 8.17569H128.285C128.061 8.17569 127.967 8.06344 127.967 7.85764V2.80631C127.967 2.5818 128.08 2.48826 128.285 2.48826H128.51C128.603 2.48826 128.678 2.52568 128.734 2.5818C128.79 2.63793 128.828 2.73147 128.828 2.80631V2.91856C128.865 2.89985 128.921 2.86243 128.996 2.80631C129.389 2.50697 129.876 2.3573 130.456 2.3573C131.204 2.3573 131.765 2.61922 132.121 3.16177C132.513 2.63793 133.15 2.3573 133.973 2.3573C135.395 2.3573 136.087 3.03081 136.087 4.39654V7.87635H136.068Z" fill="#1D1D1B"/>
<path d="M142.504 5.33197C142.504 6.21128 142.242 6.94092 141.737 7.48347C141.231 8.02602 140.539 8.28794 139.66 8.28794C138.799 8.28794 138.107 8.00731 137.583 7.44605C137.097 6.9035 136.835 6.21128 136.835 5.33197C136.835 4.45267 137.097 3.74174 137.621 3.19919C138.145 2.63793 138.837 2.37601 139.679 2.37601C140.521 2.37601 141.213 2.65664 141.737 3.2179C142.26 3.74174 142.504 4.45267 142.504 5.33197ZM141.662 5.33197C141.662 4.67717 141.493 4.17204 141.157 3.77916C140.82 3.40498 140.333 3.19919 139.679 3.19919C139.043 3.19919 138.575 3.38627 138.219 3.77916C137.883 4.15333 137.696 4.67717 137.696 5.33197C137.696 5.96807 137.864 6.4732 138.219 6.86608C138.556 7.25896 139.043 7.46476 139.679 7.46476C140.315 7.46476 140.801 7.25896 141.157 6.86608C141.493 6.49191 141.662 5.98678 141.662 5.33197Z" fill="#1D1D1B"/>
<path d="M143.832 7.82021C143.832 7.89504 143.795 7.96988 143.72 8.04471C143.645 8.10084 143.571 8.13825 143.496 8.13825H143.383C143.159 8.13825 143.065 8.026 143.065 7.82021V0.823174C143.065 0.59867 143.178 0.505127 143.383 0.505127H143.496C143.571 0.505127 143.645 0.542544 143.72 0.617379C143.795 0.692213 143.832 0.767048 143.832 0.841883V7.82021Z" fill="#1D1D1B"/>
<path d="M150.361 5.33197C150.361 6.21128 150.099 6.94092 149.594 7.48347C149.089 8.02602 148.397 8.28794 147.517 8.28794C146.657 8.28794 145.965 8.00731 145.441 7.44605C144.954 6.9035 144.692 6.21128 144.692 5.33197C144.692 4.45267 144.954 3.74174 145.478 3.19919C146.002 2.63793 146.676 2.37601 147.536 2.37601C148.378 2.37601 149.07 2.65664 149.594 3.2179C150.118 3.74174 150.361 4.45267 150.361 5.33197ZM149.519 5.33197C149.519 4.67717 149.351 4.17204 149.014 3.77916C148.677 3.40498 148.191 3.19919 147.536 3.19919C146.919 3.19919 146.432 3.38627 146.077 3.77916C145.74 4.15333 145.553 4.67717 145.553 5.33197C145.553 5.96807 145.721 6.4732 146.077 6.86608C146.414 7.25896 146.9 7.46476 147.536 7.46476C148.172 7.46476 148.659 7.25896 149.014 6.86608C149.351 6.49191 149.519 5.98678 149.519 5.33197Z" fill="#1D1D1B"/>
<path d="M156.18 7.67054C156.18 9.27948 155.319 10.084 153.598 10.084C152.924 10.084 152.363 9.93428 151.933 9.63494C151.446 9.29819 151.184 8.79305 151.166 8.15696C151.166 7.91375 151.259 7.8015 151.484 7.8015H151.708C151.877 7.8015 151.989 7.91375 152.026 8.11954C152.064 8.86789 152.606 9.24206 153.617 9.24206C154.776 9.24206 155.338 8.71822 155.338 7.67054V7.40861C154.814 7.85762 154.196 8.10083 153.486 8.10083C152.662 8.10083 152.008 7.8202 151.54 7.25895C151.091 6.7351 150.848 6.02417 150.848 5.16358C150.848 4.30298 151.091 3.59205 151.577 3.0495C152.064 2.48824 152.719 2.20761 153.56 2.20761C154.253 2.20761 154.851 2.45082 155.319 2.91854V2.65662C155.319 2.56308 155.356 2.48824 155.413 2.43211C155.469 2.37599 155.544 2.33857 155.637 2.33857H155.862C156.067 2.33857 156.18 2.45082 156.18 2.65662V7.67054ZM155.338 5.20099C155.338 4.62103 155.169 4.11589 154.833 3.7043C154.496 3.29271 154.066 3.08692 153.542 3.08692C152.98 3.08692 152.531 3.29271 152.195 3.7043C151.858 4.11589 151.69 4.60232 151.69 5.20099C151.69 5.78096 151.839 6.26739 152.139 6.66027C152.457 7.07186 152.906 7.27765 153.467 7.27765C154.047 7.27765 154.515 7.09057 154.833 6.7164C155.169 6.30481 155.338 5.81838 155.338 5.20099Z" fill="#1D1D1B"/>
<path d="M157.358 2.3573H157.527C157.695 2.3573 157.789 2.46955 157.789 2.67535V7.85764C157.789 8.08215 157.695 8.17569 157.527 8.17569H157.377C157.19 8.17569 157.115 8.06344 157.115 7.85764C157.115 7.85764 157.115 2.84372 157.115 2.60051C157.115 2.37601 157.358 2.3573 157.358 2.3573Z" fill="#1D1D1B"/>
<path d="M164 7.87635C164 8.08215 163.888 8.1944 163.682 8.1944H163.457C163.252 8.1944 163.139 8.08215 163.139 7.87635V7.53959C162.672 8.04473 162.036 8.28794 161.231 8.28794C160.389 8.28794 159.716 8.00731 159.229 7.42734C158.78 6.9035 158.537 6.19257 158.537 5.33197C158.537 4.47138 158.78 3.77916 159.248 3.23661C159.772 2.65664 160.445 2.3573 161.269 2.3573C162.054 2.3573 162.672 2.60051 163.139 3.10565V2.69406C163.139 2.61922 163.177 2.52568 163.233 2.46955C163.289 2.39472 163.364 2.37601 163.457 2.37601H163.682C163.888 2.37601 164 2.48826 164 2.69406V7.87635ZM163.158 5.35068C163.158 4.69588 163.008 4.19075 162.69 3.81657C162.372 3.40498 161.886 3.2179 161.231 3.2179C160.651 3.2179 160.183 3.42369 159.847 3.85399C159.529 4.24687 159.379 4.75201 159.379 5.35068C159.379 5.96807 159.51 6.45449 159.791 6.82867C159.809 6.82867 159.828 6.84737 159.847 6.86608C160.165 7.25897 160.632 7.46476 161.212 7.46476C161.792 7.46476 162.26 7.25897 162.616 6.86608C162.99 6.4732 163.158 5.96807 163.158 5.35068Z" fill="#1D1D1B"/>
<path d="M70.6066 30.2519C70.6066 32.4782 69.6151 34.1433 67.6507 35.2284C66.1353 36.0703 64.4328 36.5006 62.5806 36.5006C60.0737 36.5006 58.0718 35.9954 56.5938 34.9665C54.6481 33.6381 53.6753 31.5802 53.6753 28.7926V28.4558C53.6753 27.8385 53.9559 27.5204 54.5359 27.5204H55.1159C55.6771 27.5204 55.9765 27.8385 55.9765 28.4558V28.6616C55.9765 32.2537 58.1841 34.031 62.5993 34.031C64.227 34.031 65.5366 33.7504 66.5468 33.1891C67.7629 32.5156 68.3803 31.5241 68.3803 30.177C68.3803 29.2416 68.1371 28.512 67.6507 27.9694C67.2578 27.5391 66.6217 27.1837 65.7424 26.8656C65.3869 26.7347 64.9566 26.6037 64.4889 26.4914L61.9071 25.8553C59.5311 25.2754 57.9035 24.7141 57.0054 24.1903C55.2094 23.1239 54.2927 21.5149 54.2927 19.3822C54.2927 15.3785 56.8745 13.3767 62.0381 13.3767C67.4449 13.3767 70.1763 15.6966 70.2512 20.355C70.2512 20.9537 69.9705 21.253 69.4093 21.253H68.8293C68.2867 21.253 68.0061 20.9724 67.9687 20.4111C67.8565 17.8668 66.6965 16.4075 64.5076 15.9959C63.8154 15.8836 62.9922 15.8275 62.0381 15.8275C58.3712 15.8275 56.5377 17.0062 56.5377 19.3634C56.5377 20.5234 57.0054 21.384 57.9409 21.9639C58.5208 22.3381 59.7556 22.7123 61.6265 23.1052C65.0127 23.8161 67.2765 24.5832 68.4364 25.3689C69.877 26.4353 70.6066 28.0443 70.6066 30.2519Z" fill="#1D1D1B"/>
<path d="M85.33 35.1722C85.33 35.7709 85.0494 36.0703 84.5068 36.0703H83.9269C83.3843 36.0703 83.1037 35.7709 83.1037 35.1722V34.1994C81.8689 35.64 80.1851 36.3696 78.0898 36.3696C75.8634 36.3696 74.1048 35.5464 72.8327 33.9001C71.6353 32.3659 71.0366 30.3641 71.0366 27.8946C71.0366 25.425 71.654 23.4045 72.8888 21.8517C74.2545 20.1679 76.0131 19.3073 78.1833 19.3073C80.2226 19.3073 81.8689 20.037 83.1037 21.4775V20.3176C83.1037 20.0744 83.1785 19.8499 83.3469 19.6628C83.5153 19.4757 83.7024 19.3821 83.9269 19.3821H84.5068C85.0494 19.3821 85.33 19.7002 85.33 20.3176V35.1722ZM83.1037 27.8946C83.1037 26.005 82.6921 24.527 81.8876 23.4793C81.0457 22.3194 79.7736 21.7394 78.0898 21.7394C76.5557 21.7394 75.3396 22.3568 74.479 23.5729C73.6745 24.7141 73.2629 26.136 73.2629 27.8759C73.2629 29.6345 73.6184 31.0563 74.348 32.1227C74.3855 32.1414 74.4416 32.1976 74.4977 32.2537C75.3583 33.4136 76.537 33.9936 78.0898 33.9936C79.6239 33.9936 80.8587 33.4136 81.7567 32.2724C82.6547 31.1499 83.1037 29.6719 83.1037 27.8946Z" fill="#1D1D1B"/>
<path d="M99.3054 35.1723C99.3054 35.4155 99.2305 35.6213 99.0622 35.8084C98.8938 35.9954 98.7067 36.0703 98.4822 36.0703H97.9397C97.4158 36.0703 97.1539 35.7709 97.1539 35.1723V25.556C97.1539 24.34 96.8171 23.4045 96.1436 22.7497C95.4701 22.1136 94.5908 21.7769 93.4683 21.7769C92.1026 21.7769 91.0549 22.2446 90.2878 23.1987C89.5208 24.1529 89.1466 25.3876 89.1466 26.9592V35.1723C89.1466 35.4155 89.0718 35.6213 88.9034 35.8084C88.735 35.9954 88.5479 36.0703 88.3234 36.0703H87.7621C87.2196 36.0703 86.939 35.7709 86.939 35.1723V20.6544C86.939 20.4111 87.0138 20.1866 87.1822 19.9996C87.3506 19.8125 87.5376 19.7189 87.7621 19.7189H88.3421C88.5479 19.7189 88.735 19.8125 88.9034 20.0183C89.0718 20.2241 89.1653 20.4299 89.1653 20.6544V21.0472C89.2775 20.935 89.4833 20.7666 89.7453 20.5421C89.7827 20.5047 89.8388 20.4673 89.8949 20.4673C90.8865 19.7376 92.0838 19.3635 93.487 19.3635C95.1521 19.3635 96.4991 19.8499 97.5655 20.804L97.5281 20.7666C98.7254 21.833 99.3241 23.3297 99.3241 25.238V35.1723H99.3054Z" fill="#1D1D1B"/>
<path d="M114.291 35.1348C114.291 35.7522 114.01 36.0703 113.468 36.0703H112.888C112.345 36.0703 112.065 35.7522 112.065 35.1348V34.162C110.811 35.6774 109.127 36.4257 107.051 36.4257C104.824 36.4257 103.028 35.509 101.663 33.6568C100.54 32.0853 99.9976 30.0835 99.9976 27.6888C99.9976 25.1818 100.596 23.1052 101.812 21.4775C103.103 19.7189 104.881 18.8396 107.126 18.8396C109.127 18.8396 110.774 19.5879 112.046 21.0846V14.3308C112.046 13.7321 112.327 13.4328 112.869 13.4328H113.449C113.992 13.4328 114.272 13.7321 114.272 14.3308V35.1348H114.291ZM112.083 27.6888C112.083 25.7992 111.69 24.2838 110.905 23.1426C110.025 21.9265 108.753 21.3091 107.069 21.3091C105.479 21.3091 104.263 21.9452 103.384 23.2361C102.617 24.3961 102.224 25.874 102.224 27.6701C102.224 29.4474 102.598 30.9067 103.346 32.0479C103.384 32.0666 103.421 32.104 103.459 32.1414C104.319 33.3388 105.517 33.9375 107.051 33.9375C108.604 33.9375 109.857 33.3014 110.792 32.0292C111.653 30.9067 112.083 29.4474 112.083 27.6888Z" fill="#1D1D1B"/>
<path d="M117.696 16.4823L117.565 16.7442C117.378 17.3055 117.079 17.5861 116.649 17.5861C116.05 17.5861 115.732 17.2494 115.732 16.5758V14.1811C115.919 13.4889 116.218 13.1522 116.649 13.1522C117.023 13.1522 117.36 13.4702 117.678 14.125V16.4823H117.696ZM117.696 35.1348C117.696 35.3593 117.603 35.5651 117.416 35.7709C117.229 35.9767 117.042 36.0703 116.836 36.0703H116.574C116.031 36.0703 115.751 35.7522 115.751 35.1348V20.1679C115.751 19.5505 116.031 19.2325 116.574 19.2325H116.854C117.079 19.2325 117.266 19.326 117.453 19.5131C117.622 19.7002 117.715 19.9247 117.715 20.1679V35.1348H117.696Z" fill="#1D1D1B"/>
<path d="M133.393 27.9694C133.393 28.5868 133.112 28.9048 132.551 28.9048L121.158 28.9423C121.401 32.3285 123.047 34.0123 126.115 34.0123C127.126 34.0123 128.042 33.7504 128.884 33.2078C129.801 32.6466 130.418 31.8795 130.736 30.8693L130.699 30.9441C130.793 30.4764 131.073 30.2332 131.485 30.2332H132.065C132.626 30.2332 132.925 30.5512 132.925 31.1686V31.2996C131.971 34.6858 129.689 36.3696 126.059 36.3696C123.683 36.3696 121.906 35.6025 120.709 34.0684C119.511 32.5343 118.913 30.4764 118.913 27.8946C118.913 25.425 119.567 23.4045 120.858 21.8143C122.243 20.1492 124.001 19.3073 126.172 19.3073C128.36 19.3073 130.119 20.037 131.429 21.4775C132.738 22.9181 133.412 24.8638 133.412 27.2959V27.9694H133.393ZM130.98 26.5289C130.811 25.2192 130.4 24.1341 129.707 23.2923C128.884 22.2633 127.687 21.7581 126.153 21.7581C124.787 21.7581 123.683 22.1884 122.785 23.049C121.906 23.9096 121.363 25.0696 121.158 26.5476H130.98V26.5289Z" fill="#1D1D1B"/>
<path d="M148.173 34.611C148.173 39.232 145.909 41.5519 141.4 41.5519C139.642 41.5519 138.182 41.1216 137.06 40.2423C135.788 39.2694 135.114 37.8476 135.058 35.9767C135.039 35.2845 135.32 34.9477 135.881 34.9477H136.461C136.91 34.9477 137.172 35.2471 137.284 35.8458C137.415 37.9972 138.8 39.0823 141.456 39.0823C144.468 39.0823 145.984 37.5857 145.984 34.5736V33.8439C144.618 35.1535 143.009 35.8083 141.157 35.8083C139.005 35.8083 137.303 35.0039 136.049 33.4136C134.852 31.8795 134.253 29.8777 134.253 27.4082C134.253 24.9386 134.89 22.8994 136.162 21.2904C137.434 19.6815 139.174 18.8957 141.363 18.8957C143.196 18.8957 144.73 19.5879 145.984 20.9724V20.2053C145.984 19.9621 146.059 19.7376 146.227 19.5505C146.395 19.3634 146.582 19.2699 146.807 19.2699H147.387C147.929 19.2699 148.21 19.5879 148.21 20.2053V34.611H148.173ZM145.946 27.4643C145.946 25.7992 145.516 24.3586 144.637 23.1613C143.757 21.9639 142.635 21.3653 141.269 21.3653C139.791 21.3653 138.613 21.9452 137.733 23.1239C136.854 24.2838 136.424 25.7244 136.424 27.4082C136.424 29.0919 136.816 30.4951 137.584 31.5802C138.407 32.7775 139.585 33.3762 141.082 33.3762C142.616 33.3762 143.814 32.8337 144.674 31.7486C145.516 30.6822 145.946 29.2416 145.946 27.4643Z" fill="#1D1D1B"/>
<path d="M163.645 27.8572C163.645 30.4202 162.971 32.4782 161.643 34.031C160.296 35.5838 158.5 36.3696 156.199 36.3696C153.935 36.3696 152.12 35.5651 150.754 33.9749C149.463 32.4408 148.809 30.4015 148.809 27.8572C148.809 25.3502 149.501 23.2923 150.867 21.702C152.232 20.1118 154.028 19.3073 156.273 19.3073C158.481 19.3073 160.296 20.1118 161.68 21.7394C162.971 23.2923 163.645 25.3315 163.645 27.8572ZM161.418 27.8572C161.418 25.9863 160.969 24.5083 160.09 23.4045C159.192 22.3007 157.92 21.7581 156.236 21.7581C154.59 21.7581 153.317 22.3007 152.419 23.4045C151.521 24.5083 151.072 25.9863 151.072 27.8572C151.072 29.6906 151.521 31.1686 152.419 32.2911C153.317 33.4323 154.59 33.9936 156.236 33.9936C157.901 33.9936 159.192 33.4136 160.127 32.2537C160.988 31.1873 161.418 29.7093 161.418 27.8572Z" fill="#1D1D1B"/>
<path d="M157.658 2.24503C157.62 2.30115 157.508 2.28244 157.396 2.20761C157.284 2.13277 157.228 2.02052 157.265 1.9644L158.462 0.299327C158.5 0.243201 158.612 0.26191 158.724 0.336745C158.836 0.411579 158.893 0.523831 158.855 0.579957L157.658 2.24503Z" fill="#1D1D1B"/>
<path d="M64.4512 2.33859H64.6196C64.8067 2.33859 64.8815 2.45084 64.8815 2.65664V7.83893C64.8815 8.06344 64.788 8.15698 64.6196 8.15698H64.4699C64.2828 8.15698 64.208 8.04473 64.208 7.83893C64.208 7.83893 64.208 2.82502 64.208 2.5818C64.208 2.33859 64.4512 2.33859 64.4512 2.33859Z" fill="#1D1D1B"/>
<path d="M64.7506 2.22632C64.7132 2.28244 64.6009 2.26374 64.4887 2.1889C64.3764 2.11407 64.3203 2.00182 64.3577 1.94569L65.5551 0.28062C65.5925 0.224494 65.7048 0.243203 65.817 0.318037C65.9293 0.392872 65.9854 0.505124 65.948 0.56125L64.7506 2.22632Z" fill="#1D1D1B"/>
</svg>
