<?xml version="1.0" encoding="UTF-8"?>
<!DOCTYPE svg PUBLIC "-//W3C//DTD SVG 1.1//EN" "http://www.w3.org/Graphics/SVG/1.1/DTD/svg11.dtd">
<!-- Creator: CorelDRAW -->
<svg xmlns="http://www.w3.org/2000/svg" xml:space="preserve" width="2.27611in" height="2.76478in" version="1.1" style="shape-rendering:geometricPrecision; text-rendering:geometricPrecision; image-rendering:optimizeQuality; fill-rule:evenodd; clip-rule:evenodd"
viewBox="0 0 59.79 72.63"
 xmlns:xlink="http://www.w3.org/1999/xlink"
 xmlns:xodm="http://www.corel.com/coreldraw/odm/2003">
 <defs>
  <style type="text/css">
   <![CDATA[
    .fil0 {fill:#3952A5}
   ]]>
  </style>
 </defs>
 <g id="Capa_x0020_1">
  <metadata id="CorelCorpID_0Corel-Layer"/>
  <g id="_2253459146048">
   <path class="fil0" d="M19.08 28.54l-4.72 0 0 -9.63c1.58,0 3.15,0 4.73,0 2.19,0.01 3.21,2.37 3.21,4.74 0,2.21 -0.98,4.88 -3.21,4.89zm-9.04 -3.72l-2.78 0 0 3.72 -1.86 -0 0 -9.63 4.64 0c1.69,-0 2.53,1.41 2.53,2.94 0,1.38 -1.05,2.96 -2.53,2.97zm15.97 -2.03l4.05 0 0 1.52 -4.05 0 0 4.22 -1.86 0 0 -9.63 6.42 0 0 1.52 -4.56 0 0 2.36zm-26.01 -6.26c0,4.68 0,9.36 0,14.04 0,1.21 0.01,1.17 1.32,1.17 11.11,0 22.22,0 33.34,0 1.36,0 1.32,0.04 1.32,-1.17 0,-4.68 0,-9.36 0,-14.04 -0,-1.17 0.04,-1.17 -1.32,-1.17 -11.11,0 -22.23,0 -33.34,0 -1.31,-0 -1.32,0.05 -1.32,1.17z"/>
   <path class="fil0" d="M42.05 4.03l13.44 11.51c-3.94,0 -8.31,0 -12.25,0 -0.76,-0 -1.18,-0.39 -1.18,-1.18l0 -10.33zm-33.95 0.15l0 9.67 2.36 0 0 -0.17 0.17 0c0,-2.76 0,-5.52 0,-8.28 0,-2.39 0.64,-2.7 3.04,-2.7l25.84 0 0 12.33c0,1.86 1.52,3.04 3.21,3.04l14.53 0c0,14.92 0,29.84 0,44.76 -0,1.16 -0.35,2.7 -2.7,2.7l-5.91 0 -2.48 2.7c2.65,0 5.58,0 8.23,0 3.14,-0 5.4,-1.65 5.4,-4.56l0 -48.16c-0.1,0 -17.58,-15.3 -17.84,-15.52 -9.12,0 -19.15,0 -28.27,0 -4.5,-0 -5.58,0.38 -5.57,4.18z"/>
   <path class="fil0" d="M33.44 60.97l-4.39 0c1.81,1.99 8.55,9.55 10.47,11.65l10.64 -11.65 -4.39 0 0 -11.9c0,-5.87 0.54,-5.33 -6.22,-5.33 -6.87,0 -6.11,-0.54 -6.11,5.41l0 11.82z"/>
   <path class="fil0" d="M8.11 63.67c0,2.83 2.34,4.49 5.57,4.56l19.32 0 -2.44 -2.7c-5.74,0 -11.15,0 -16.89,0 -2.19,-0 -3.04,-1.08 -3.04,-3.53l0 -28.37 -2.53 -0.02c0,10.02 0,20.04 0,30.06z"/>
   <path class="fil0" d="M16.21 26.9c0.96,0 1.91,0 2.87,0 0.59,-0 1.35,-0.7 1.35,-3.2 -0,-2.01 -0.67,-3.22 -1.38,-3.22l-2.84 0 0 6.42z"/>
   <path class="fil0" d="M7.26 23.31c0.79,0 1.57,0 2.36,0 0.62,0 1.18,-0.41 1.18,-1.48 0,-1.02 -0.61,-1.39 -1.18,-1.39l-2.36 0 0 2.87z"/>
  </g>
 </g>
</svg>
