<?xml version="1.0" encoding="UTF-8"?>
<!DOCTYPE svg PUBLIC "-//W3C//DTD SVG 1.1//EN" "http://www.w3.org/Graphics/SVG/1.1/DTD/svg11.dtd">
<!-- Creator: CorelDRAW -->
<svg xmlns="http://www.w3.org/2000/svg" xml:space="preserve" width="0.83889in" height="1.1175in" version="1.1" style="shape-rendering:geometricPrecision; text-rendering:geometricPrecision; image-rendering:optimizeQuality; fill-rule:evenodd; clip-rule:evenodd"
viewBox="0 0 18.85 25.11"
 xmlns:xlink="http://www.w3.org/1999/xlink"
 xmlns:xodm="http://www.corel.com/coreldraw/odm/2003">
 <defs>
  <style type="text/css">
   <![CDATA[
    .fil0 {fill:#4D4E50;fill-rule:nonzero}
   ]]>
  </style>
 </defs>
 <g id="Capa_x0020_1">
  <metadata id="CorelCorpID_0Corel-Layer"/>
  <path class="fil0" d="M9.11 19.32c-0.04,0.03 -0.08,0.07 -0.12,0.1 -0.04,0.04 -0.08,0.07 -0.12,0.1 -0.08,0.07 -0.17,0.13 -0.26,0.2l-1.85 3.8 -0.37 -2.19 0.55 -0.88c-0.07,0.02 -0.13,0.03 -0.2,0.04 -0.17,0.03 -0.35,0.05 -0.53,0.06 -0.1,0.01 -0.2,0.01 -0.29,0.01 -0.38,0 -0.75,-0.05 -1.1,-0.13l0.56 0.9 -0.35 2.23 -2.05 -4.03c-0.09,-0.07 -0.19,-0.15 -0.27,-0.24l-0.04 0.03c-1.99,1.72 -2.52,4.38 -2.66,5.78l11.64 0c-0.38,-4.09 -2.09,-5.49 -2.53,-5.79z"/>
  <path class="fil0" d="M5.91 11.42c-2.43,0 -4.41,1.98 -4.41,4.41 0,2.43 1.98,4.41 4.41,4.41 2.43,0 4.41,-1.98 4.41,-4.41 0,-2.43 -1.98,-4.41 -4.41,-4.41z"/>
  <path class="fil0" d="M16.5 21.67c-0.05,0.07 -1.09,0.74 -1.09,0.74l0.51 0.7 -1.62 1.27 0 0.01 -0 -0 -0.01 0 0 -0.01 -1.62 -1.27 0.51 -0.7c0,0 -1.04,-0.68 -1.09,-0.74 -0.09,-0.12 0.47,-0.65 0.47,-0.65l1.74 3.36 1.74 -3.36c0,0 0.56,0.53 0.47,0.65zm2.04 0.53c0.03,-0.02 0.04,-0.05 0.04,-0.08 -0,-0.03 -0.02,-0.06 -0.05,-0.07 -0.01,-0.01 -0.75,-0.39 -0.94,-0.9 0.26,0.26 0.57,0.36 0.97,0.44 0.03,0 0.06,-0.01 0.08,-0.03 0.02,-0.02 0.03,-0.06 0.01,-0.09 -0.38,-0.93 -0.57,-2.04 -0.76,-3.11 -0.11,-0.66 -0.22,-1.29 -0.37,-1.87 -0.05,-0.25 -0.13,-0.48 -0.23,-0.71 -0.11,-0.28 -0.23,-0.53 -0.39,-0.75 -0.17,-0.23 -0.61,-0.86 -1.63,-1.07 -0.33,-0.11 -0.68,-0.17 -1.04,-0.17 -0.73,0 -1.37,0.24 -1.89,0.65 -0.5,0.31 -0.87,0.79 -1.14,1.47 -0.18,0.38 -0.31,0.81 -0.39,1.24 -0.02,0.12 -0.03,0.24 -0.04,0.35 -0.02,0.14 -0.05,0.29 -0.07,0.44 -0.1,0.72 -0.03,1.66 0.11,2.55 0.58,0.93 1.17,2.39 1.37,4.61l6.65 0c-0.05,-0.61 -0.2,-1.66 -0.67,-2.7 0.22,-0.11 0.36,-0.2 0.37,-0.21z"/>
  <path class="fil0" d="M12.68 2.8l-10.54 0c-0.11,0 -0.2,-0.09 -0.2,-0.2 0,-0.11 0.09,-0.2 0.2,-0.2l10.54 0c0.11,0 0.2,0.09 0.2,0.2 0,0.11 -0.09,0.2 -0.2,0.2zm0 1.41l-10.54 0c-0.11,0 -0.2,-0.09 -0.2,-0.2 0,-0.11 0.09,-0.2 0.2,-0.2l10.54 0c0.11,0 0.2,0.09 0.2,0.2 0,0.11 -0.09,0.2 -0.2,0.2zm-4.66 1.41l-5.88 0c-0.11,0 -0.2,-0.09 -0.2,-0.2 0,-0.11 0.09,-0.2 0.2,-0.2l5.88 0c0.11,0 0.2,0.09 0.2,0.2 0,0.11 -0.09,0.2 -0.2,0.2zm5.35 -5.62l-11.78 0c-0.64,0 -1.16,0.52 -1.16,1.16l0 6.34c0,0.64 0.52,1.16 1.16,1.16l4.74 0 -0.16 1.99 1.73 -1.99 5.47 0c0.64,0 1.16,-0.52 1.16,-1.16l0 -6.34c0,-0.64 -0.52,-1.16 -1.16,-1.16z"/>
  <path class="fil0" d="M17.74 5.62l-2.68 0 0 2.29c0,0.69 -0.56,1.25 -1.25,1.25l-3.54 0 0 1.53c0,0.4 0.33,0.73 0.73,0.73l3.59 0 1.08 1.25 -0.1 -1.25 2.16 0c0.4,0 0.73,-0.32 0.73,-0.73l0 -4.34c0,-0.4 -0.33,-0.73 -0.73,-0.73z"/>
 </g>
</svg>
