<?xml version="1.0" encoding="UTF-8"?>
<!DOCTYPE svg PUBLIC "-//W3C//DTD SVG 1.1//EN" "http://www.w3.org/Graphics/SVG/1.1/DTD/svg11.dtd">
<!-- Creator: CorelDRAW -->
<svg xmlns="http://www.w3.org/2000/svg" xml:space="preserve" width="1.16107in" height="1.03768in" version="1.1" style="shape-rendering:geometricPrecision; text-rendering:geometricPrecision; image-rendering:optimizeQuality; fill-rule:evenodd; clip-rule:evenodd"
viewBox="0 0 22.91 20.47"
 xmlns:xlink="http://www.w3.org/1999/xlink"
 xmlns:xodm="http://www.corel.com/coreldraw/odm/2003">
 <defs>
  <style type="text/css">
   <![CDATA[
    .fil0 {fill:#4D4E50;fill-rule:nonzero}
   ]]>
  </style>
 </defs>
 <g id="Capa_x0020_1">
  <metadata id="CorelCorpID_0Corel-Layer"/>
  <path class="fil0" d="M4.95 10.37l6.39 0c0.4,0 0.38,0.66 0.03,0.66l-6.42 0c-0.28,0 -0.28,-0.66 0,-0.66zm0.03 -2.48l12.78 0c0.53,0 0.53,0.66 0.03,0.66l-12.81 0c-0.4,0 -0.47,-0.66 0,-0.66zm0 -2.48l12.96 0c0.44,0 0.44,0.66 0,0.66l-12.99 0c-0.35,0 -0.37,-0.66 0.03,-0.66zm7.22 10.58c5.98,-0.27 10.71,-3.74 10.71,-7.99 0,-4.42 -5.13,-8 -11.45,-8 -6.33,0 -11.45,3.58 -11.45,8 0,3.36 2.97,6.24 7.17,7.42l-1.88 5.05 6.92 -4.49z"/>
 </g>
</svg>
