<?xml version="1.0" encoding="UTF-8"?>
<!DOCTYPE svg PUBLIC "-//W3C//DTD SVG 1.1//EN" "http://www.w3.org/Graphics/SVG/1.1/DTD/svg11.dtd">
<!-- Creator: CorelDRAW -->
<svg xmlns="http://www.w3.org/2000/svg" xml:space="preserve" width="0.97276in" height="0.981882in" version="1.1" style="shape-rendering:geometricPrecision; text-rendering:geometricPrecision; image-rendering:optimizeQuality; fill-rule:evenodd; clip-rule:evenodd"
viewBox="0 0 16.03 16.18"
 xmlns:xlink="http://www.w3.org/1999/xlink"
 xmlns:xodm="http://www.corel.com/coreldraw/odm/2003">
 <defs>
  <style type="text/css">
   <![CDATA[
    .fil0 {fill:#4D4E50;fill-rule:nonzero}
   ]]>
  </style>
 </defs>
 <g id="Capa_x0020_1">
  <metadata id="CorelCorpID_0Corel-Layer"/>
  <path class="fil0" d="M5.05 7.01l0.49 -0.54c0.4,-0.45 0.61,-1.02 0.58,-1.62 -0.03,-0.6 -0.29,-1.15 -0.74,-1.55l-0.83 -0.75c-0.41,-0.37 -0.95,-0.58 -1.51,-0.58 -0.63,0 -1.24,0.27 -1.67,0.74l-0.49 0.54c-0.06,0.07 -0.12,0.14 -0.18,0.23l-0.02 0.02c-0.46,0.39 -0.85,1.35 -0.63,2.53 1.05,5.47 5.66,9.64 11.21,10.14 0.73,0.07 1.41,-0.08 1.93,-0.4 0.21,-0.12 0.39,-0.27 0.55,-0.44l0.49 -0.54c0.83,-0.92 0.76,-2.34 -0.16,-3.17l-0.82 -0.75c-0.41,-0.37 -0.95,-0.58 -1.51,-0.58 -0.63,0 -1.24,0.27 -1.67,0.74l-0.49 0.54c-0.21,0.23 -0.36,0.5 -0.46,0.79l-0.04 0.13 -0.13 -0.05c-2.18,-0.86 -3.96,-2.49 -5,-4.59l-0.07 -0.14 0.15 -0.04c0.39,-0.12 0.74,-0.34 1.02,-0.64z"/>
  <path class="fil0" d="M7.8 0.52c0,0.29 0.23,0.52 0.52,0.52 3.67,0 6.66,2.99 6.66,6.66 0,0.29 0.23,0.52 0.52,0.52 0.29,0 0.52,-0.23 0.52,-0.52 0,-4.25 -3.46,-7.71 -7.71,-7.71 -0.29,0 -0.52,0.23 -0.52,0.52z"/>
  <path class="fil0" d="M7.71 3.09c0,0.29 0.23,0.52 0.52,0.52 2.31,0 4.18,1.88 4.18,4.18 0,0.29 0.23,0.52 0.52,0.52 0.29,0 0.52,-0.23 0.52,-0.52 0,-2.88 -2.35,-5.23 -5.23,-5.23 -0.29,0 -0.52,0.23 -0.52,0.52z"/>
 </g>
</svg>
