<?xml version="1.0" encoding="UTF-8"?>
<!DOCTYPE svg PUBLIC "-//W3C//DTD SVG 1.1//EN" "http://www.w3.org/Graphics/SVG/1.1/DTD/svg11.dtd">
<!-- Creator: CorelDRAW -->
<svg xmlns="http://www.w3.org/2000/svg" xml:space="preserve" width="1.00227in" height="1.01141in" version="1.1" style="shape-rendering:geometricPrecision; text-rendering:geometricPrecision; image-rendering:optimizeQuality; fill-rule:evenodd; clip-rule:evenodd"
viewBox="0 0 13.3 13.42"
 xmlns:xlink="http://www.w3.org/1999/xlink"
 xmlns:xodm="http://www.corel.com/coreldraw/odm/2003">
 <defs>
  <style type="text/css">
   <![CDATA[
    .str0 {stroke:#3952A5;stroke-width:0.52;stroke-miterlimit:10}
    .str1 {stroke:#3952A5;stroke-width:0.26;stroke-miterlimit:10}
    .fil0 {fill:#FEFEFE;fill-rule:nonzero}
   ]]>
  </style>
 </defs>
 <g id="Capa_x0020_1">
  <metadata id="CorelCorpID_0Corel-Layer"/>
  <path class="fil0 str0" d="M4.33 5.77l0.39 -0.44c0.32,-0.36 0.49,-0.82 0.47,-1.31 -0.02,-0.48 -0.24,-0.93 -0.59,-1.25l-0.66 -0.6c-0.33,-0.3 -0.76,-0.47 -1.21,-0.47 -0.51,0 -1,0.22 -1.34,0.6l-0.39 0.44c-0.05,0.06 -0.1,0.12 -0.14,0.18l-0.02 0.02c-0.37,0.32 -0.69,1.09 -0.5,2.04 0.85,4.41 4.56,7.76 9.03,8.16 0.59,0.05 1.14,-0.07 1.56,-0.32 0.17,-0.1 0.32,-0.22 0.44,-0.36l0.39 -0.44c0.67,-0.74 0.61,-1.89 -0.13,-2.56l-0.66 -0.6c-0.33,-0.3 -0.76,-0.47 -1.21,-0.47 -0.51,0 -1,0.22 -1.34,0.6l-0.39 0.44c-0.17,0.19 -0.29,0.4 -0.37,0.64l-0.04 0.11 -0.1 -0.04c-1.76,-0.69 -3.19,-2.01 -4.03,-3.7l-0.06 -0.11 0.12 -0.04c0.31,-0.09 0.6,-0.27 0.82,-0.52z"/>
  <path class="fil0 str1" d="M6.54 0.55c0,0.23 0.19,0.42 0.42,0.42 2.96,0 5.36,2.41 5.36,5.36 0,0.23 0.19,0.42 0.42,0.42 0.23,0 0.42,-0.19 0.42,-0.42 0,-3.42 -2.79,-6.21 -6.21,-6.21 -0.23,0 -0.42,0.19 -0.42,0.42z"/>
  <path class="fil0 str1" d="M6.47 2.62c0,0.23 0.19,0.42 0.42,0.42 1.86,0 3.37,1.51 3.37,3.37 0,0.23 0.19,0.42 0.42,0.42 0.23,0 0.42,-0.19 0.42,-0.42 0,-2.32 -1.89,-4.21 -4.21,-4.21 -0.23,0 -0.42,0.19 -0.42,0.42z"/>
 </g>
</svg>
