<?xml version="1.0" encoding="UTF-8"?>
<!DOCTYPE svg PUBLIC "-//W3C//DTD SVG 1.1//EN" "http://www.w3.org/Graphics/SVG/1.1/DTD/svg11.dtd">
<!-- Creator: CorelDRAW -->
<svg xmlns="http://www.w3.org/2000/svg" xml:space="preserve" width="1.19959in" height="1.0522in" version="1.1" style="shape-rendering:geometricPrecision; text-rendering:geometricPrecision; image-rendering:optimizeQuality; fill-rule:evenodd; clip-rule:evenodd"
viewBox="0 0 17.44 15.3"
 xmlns:xlink="http://www.w3.org/1999/xlink"
 xmlns:xodm="http://www.corel.com/coreldraw/odm/2003">
 <defs>
  <style type="text/css">
   <![CDATA[
    .fil0 {fill:#4C4E50;fill-rule:nonzero}
   ]]>
  </style>
 </defs>
 <g id="Capa_x0020_1">
  <metadata id="CorelCorpID_0Corel-Layer"/>
  <path class="fil0" d="M17.37 1.83c-0.55,0.27 -1.17,0.43 -1.76,0.54 0.28,-0.05 0.7,-0.6 0.87,-0.82 0.25,-0.34 0.47,-0.72 0.59,-1.14l-0 -0.1 -0.09 0.01c-0.67,0.38 -1.36,0.66 -2.09,0.85l-0.14 -0.04 -0.18 -0.2c-0.31,-0.28 -0.64,-0.5 -1.01,-0.66 -0.49,-0.21 -1.03,-0.3 -1.55,-0.27 -0.51,0.04 -1.02,0.19 -1.48,0.44 -0.46,0.25 -0.86,0.61 -1.19,1.03 -0.34,0.44 -0.58,0.96 -0.71,1.51 -0.12,0.53 -0.11,1.06 -0.04,1.6l-0.07 0.09c-2.87,-0.46 -5.26,-1.55 -7.19,-3.9 -0.08,-0.1 -0.13,-0.1 -0.2,0.01 -0.85,1.35 -0.44,3.52 0.62,4.59 0.14,0.14 0.29,0.28 0.44,0.41 -0.06,0.01 -0.76,-0.07 -1.39,-0.41l-0.13 0.08c-0.01,0.15 0,0.28 0.02,0.44 0.16,1.37 1.05,2.64 2.27,3.13 0.14,0.07 0.3,0.12 0.46,0.15 -0.28,0.07 -0.56,0.11 -1.36,0.05 -0.1,-0.02 -0.14,0.03 -0.1,0.13 0.6,1.74 1.89,2.26 2.86,2.55 0.13,0.02 0.26,0.02 0.39,0.06l-0.02 0.02c-0.32,0.52 -1.44,0.91 -1.95,1.1 -0.94,0.35 -1.97,0.51 -2.97,0.4 -0.16,-0.03 -0.19,-0.02 -0.24,0l0.05 0.11c0.2,0.14 0.41,0.27 0.62,0.39 0.63,0.36 1.29,0.64 1.98,0.84 3.56,1.05 7.58,0.28 10.25,-2.55 2.1,-2.22 2.84,-5.29 2.84,-8.36 0,-0.12 0.13,-0.19 0.21,-0.25 0.55,-0.44 0.99,-0.96 1.4,-1.55 0.09,-0.13 0.09,-0.25 0.09,-0.29l0 -0.02 -0.07 0z"/>
 </g>
</svg>
