<?xml version="1.0" encoding="UTF-8"?>
<!DOCTYPE svg PUBLIC "-//W3C//DTD SVG 1.1//EN" "http://www.w3.org/Graphics/SVG/1.1/DTD/svg11.dtd">
<!-- Creator: CorelDRAW -->
<svg xmlns="http://www.w3.org/2000/svg" xml:space="preserve" width="1.39207in" height="1.39207in" version="1.1" style="shape-rendering:geometricPrecision; text-rendering:geometricPrecision; image-rendering:optimizeQuality; fill-rule:evenodd; clip-rule:evenodd"
viewBox="0 0 31.13 31.13"
 xmlns:xlink="http://www.w3.org/1999/xlink"
 xmlns:xodm="http://www.corel.com/coreldraw/odm/2003">
 <defs>
  <style type="text/css">
   <![CDATA[
    .str0 {stroke:#4C4E50;stroke-width:0.88;stroke-miterlimit:2.61313}
    .fil1 {fill:none}
    .fil0 {fill:#4D4E50;fill-rule:nonzero}
   ]]>
  </style>
 </defs>
 <g id="Capa_x0020_1">
  <metadata id="CorelCorpID_0Corel-Layer"/>
  <path class="fil0" d="M19.59 10.7c-0.01,-0.06 -0.02,-0.12 -0.03,-0.18 -0.01,-0.05 -0.02,-0.09 -0.03,-0.13l-0.04 -0.14c-0.01,-0.04 -0.02,-0.08 -0.03,-0.11 -0.02,-0.06 -0.04,-0.11 -0.06,-0.17l-0.05 -0.13c-0.01,-0.02 -0.02,-0.05 -0.03,-0.07 -0.03,-0.08 -0.07,-0.15 -0.11,-0.23l-0.04 -0.08c-0.01,-0.02 -0.01,-0.03 -0.02,-0.05 -0.05,-0.09 -0.1,-0.18 -0.16,-0.26 -0.01,-0.01 -0.02,-0.03 -0.03,-0.05 -0.07,-0.11 -0.15,-0.2 -0.21,-0.29l-0.03 -0.04c-0.07,-0.09 -0.16,-0.19 -0.25,-0.28l-0.02 -0.03c-0.75,-0.75 -1.76,-1.18 -2.85,-1.19l-0.05 -0c-2.24,0 -4.07,1.83 -4.07,4.08 0,2.25 1.83,4.07 4.07,4.08l0.05 0c1.08,-0.01 2.09,-0.44 2.85,-1.21 0.1,-0.1 0.19,-0.2 0.26,-0.29 0.01,-0.02 0.02,-0.03 0.03,-0.04 0.07,-0.08 0.14,-0.17 0.2,-0.27 0.02,-0.04 0.03,-0.05 0.04,-0.07 0.06,-0.09 0.11,-0.17 0.16,-0.27 0.01,-0.01 0.02,-0.02 0.02,-0.04 0.01,-0.02 0.02,-0.04 0.03,-0.07l0.02 -0.03c0.04,-0.07 0.07,-0.14 0.1,-0.21 0.01,-0.02 0.02,-0.05 0.02,-0.07l0.05 -0.13c0.02,-0.06 0.04,-0.11 0.06,-0.16 0.01,-0.04 0.02,-0.08 0.03,-0.12l0.04 -0.15c0.01,-0.04 0.02,-0.08 0.03,-0.12 0.01,-0.06 0.02,-0.12 0.03,-0.18l0.02 -0.14c0,-0.03 0.01,-0.06 0.01,-0.08 0.01,-0.14 0.02,-0.28 0.02,-0.42 0,-0.14 -0.01,-0.28 -0.02,-0.42 -0,-0.03 -0.01,-0.06 -0.01,-0.08l-0.02 -0.14z"/>
  <path class="fil0" d="M20.38 11.83c-0,0.05 -0.01,0.09 -0.02,0.13l-0.02 0.11c-0.01,0.08 -0.02,0.16 -0.04,0.23 -0.01,0.06 -0.03,0.12 -0.04,0.18l-0.03 0.12c-0.01,0.06 -0.03,0.11 -0.04,0.16 -0.02,0.07 -0.05,0.14 -0.08,0.21l-0.04 0.11c-0.01,0.04 -0.03,0.08 -0.04,0.11 -0.04,0.09 -0.08,0.17 -0.12,0.26l-0.04 0.08c-0.02,0.03 -0.03,0.06 -0.04,0.09 -0.06,0.11 -0.12,0.21 -0.19,0.31 -0.02,0.04 -0.04,0.06 -0.05,0.08 -0.07,0.11 -0.16,0.22 -0.24,0.32 -0.02,0.02 -0.02,0.03 -0.03,0.05 -0.09,0.11 -0.19,0.22 -0.3,0.33 -0.92,0.93 -2.12,1.44 -3.4,1.45 -0.02,0 -0.03,0 -0.05,0 -2.67,0 -4.84,-2.17 -4.84,-4.84 0,-2.67 2.17,-4.84 4.84,-4.84l0.05 0c1.28,0.01 2.48,0.52 3.39,1.43l0.02 0.02c0.11,0.11 0.2,0.21 0.29,0.32 0.01,0.02 0.02,0.03 0.03,0.04 0.09,0.11 0.17,0.22 0.25,0.33 0.01,0.02 0.02,0.04 0.04,0.06 0.08,0.12 0.14,0.23 0.2,0.33 0.02,0.03 0.03,0.06 0.04,0.09l0.02 0.04c0.06,0.11 0.1,0.2 0.14,0.3 0.02,0.04 0.03,0.08 0.05,0.12l0.04 0.11c0.03,0.07 0.06,0.14 0.08,0.21 0.02,0.05 0.03,0.11 0.04,0.16l0.03 0.12c0.02,0.06 0.03,0.12 0.04,0.18 0.02,0.07 0.02,0.15 0.04,0.23l0.02 0.11c0.01,0.04 0.02,0.09 0.02,0.13 0.02,0.16 0.02,0.33 0.02,0.49 0,0.16 -0.01,0.33 -0.02,0.49zm2.31 4.85c0.04,-0.07 0.08,-0.14 0.14,-0.23 0.01,-0.01 0.02,-0.02 0.02,-0.03 0.11,-0.2 0.28,-0.5 0.28,-0.51 0.66,-1.3 1,-2.71 1,-4.17 0,-0.16 -0,-0.31 -0.01,-0.47 0,-0.07 -0.01,-0.13 -0.01,-0.2l-0.01 -0.13c-0,-0.04 -0.01,-0.09 -0.01,-0.13 -0.01,-0.05 -0.01,-0.11 -0.02,-0.16l-0.01 -0.12c-0.01,-0.06 -0.01,-0.11 -0.02,-0.17 -0.01,-0.04 -0.01,-0.09 -0.02,-0.13l-0.02 -0.11c-0.01,-0.07 -0.02,-0.13 -0.03,-0.19 -0.01,-0.05 -0.02,-0.1 -0.03,-0.15l-0.03 -0.14c-0.01,-0.05 -0.02,-0.1 -0.03,-0.14 -0.02,-0.07 -0.03,-0.13 -0.05,-0.2l-0.03 -0.11c-0.01,-0.03 -0.02,-0.07 -0.02,-0.11 -0.02,-0.07 -0.04,-0.14 -0.07,-0.21l-0.03 -0.09c-0.01,-0.03 -0.02,-0.07 -0.03,-0.1 -0.02,-0.07 -0.05,-0.14 -0.07,-0.21l-0.03 -0.09c-0.01,-0.03 -0.02,-0.07 -0.04,-0.09 -0.03,-0.08 -0.06,-0.16 -0.09,-0.23l-0.04 -0.08c-0.01,-0.02 -0.02,-0.05 -0.03,-0.07 -0.05,-0.1 -0.09,-0.2 -0.14,-0.3l-0.03 -0.07c-0.05,-0.1 -0.11,-0.2 -0.17,-0.31l-0.02 -0.05c-0.06,-0.1 -0.12,-0.2 -0.19,-0.32 -0,-0 -0.02,-0.03 -0.02,-0.03 -0.07,-0.1 -0.13,-0.2 -0.21,-0.3 -0,-0 -0.02,-0.02 -0.02,-0.03 -0.07,-0.1 -0.15,-0.2 -0.23,-0.3 -0,-0.01 -0.02,-0.02 -0.02,-0.02 -0.08,-0.1 -0.17,-0.2 -0.26,-0.3 -0.09,-0.1 -0.18,-0.2 -0.27,-0.29 0,-0 0,-0 0,-0 -1.56,-1.56 -3.7,-2.38 -6.18,-2.38 -5.04,0 -8.56,3.52 -8.56,8.55 0,1.56 0.4,3.1 1.15,4.45l0.13 0.24c0.01,0.01 0.01,0.02 0.02,0.03l0.21 0.33c0.02,0.04 0.05,0.07 0.06,0.09l5.47 9.2 -0 0 1.27 2.13c0.07,0.11 0.19,0.19 0.33,0.19l0 0c0.14,-0 0.26,-0.07 0.33,-0.19l1.24 -2.13 0 0 5.34 -9.19c0.05,-0.07 0.09,-0.13 0.13,-0.2z"/>
  <circle class="fil1 str0" cx="15.57" cy="15.57" r="15.13"/>
 </g>
</svg>
