<?xml version="1.0" encoding="UTF-8"?>
<!DOCTYPE svg PUBLIC "-//W3C//DTD SVG 1.1//EN" "http://www.w3.org/Graphics/SVG/1.1/DTD/svg11.dtd">
<!-- Creator: CorelDRAW -->
<svg xmlns="http://www.w3.org/2000/svg" xml:space="preserve" width="0.765098in" height="1.12687in" version="1.1" style="shape-rendering:geometricPrecision; text-rendering:geometricPrecision; image-rendering:optimizeQuality; fill-rule:evenodd; clip-rule:evenodd"
viewBox="0 0 9.31 13.71"
 xmlns:xlink="http://www.w3.org/1999/xlink"
 xmlns:xodm="http://www.corel.com/coreldraw/odm/2003">
 <defs>
  <style type="text/css">
   <![CDATA[
    .fil0 {fill:#4D4E50;fill-rule:nonzero}
   ]]>
  </style>
 </defs>
 <g id="Capa_x0020_1">
  <metadata id="CorelCorpID_0Corel-Layer"/>
  <path class="fil0" d="M7.26 4.71c-0,0.03 -0.01,0.05 -0.01,0.07l-0.01 0.06c-0.01,0.04 -0.01,0.08 -0.02,0.13 -0.01,0.03 -0.02,0.06 -0.02,0.1l-0.02 0.07c-0.01,0.03 -0.02,0.06 -0.02,0.09 -0.01,0.04 -0.03,0.08 -0.04,0.11l-0.02 0.06c-0.01,0.02 -0.02,0.04 -0.02,0.06 -0.02,0.05 -0.04,0.09 -0.07,0.14l-0.02 0.04c-0.01,0.02 -0.02,0.03 -0.02,0.05 -0.03,0.06 -0.07,0.11 -0.1,0.17 -0.01,0.02 -0.02,0.03 -0.03,0.05 -0.04,0.06 -0.08,0.12 -0.13,0.17 -0.01,0.01 -0.01,0.02 -0.02,0.03 -0.05,0.06 -0.1,0.12 -0.16,0.18 -0.5,0.5 -1.15,0.78 -1.85,0.79 -0.01,0 -0.02,0 -0.03,0 -1.45,0 -2.63,-1.18 -2.63,-2.63 0,-1.45 1.18,-2.63 2.63,-2.63l0.03 0c0.7,0.01 1.35,0.28 1.84,0.78l0.01 0.01c0.06,0.06 0.11,0.12 0.16,0.17 0.01,0.01 0.01,0.02 0.02,0.02 0.05,0.06 0.09,0.12 0.13,0.18 0.01,0.01 0.01,0.02 0.02,0.03 0.04,0.07 0.08,0.12 0.11,0.18 0.01,0.02 0.02,0.03 0.02,0.05l0.01 0.02c0.03,0.06 0.05,0.11 0.08,0.16 0.01,0.02 0.02,0.04 0.03,0.07l0.02 0.06c0.02,0.04 0.03,0.08 0.04,0.11 0.01,0.03 0.02,0.06 0.02,0.09l0.02 0.07c0.01,0.03 0.02,0.06 0.02,0.1 0.01,0.04 0.01,0.08 0.02,0.13l0.01 0.06c0.01,0.02 0.01,0.05 0.01,0.07 0.01,0.09 0.01,0.18 0.01,0.27 0,0.09 -0,0.18 -0.01,0.27zm1.26 2.64c0.02,-0.04 0.05,-0.07 0.08,-0.12 0.01,-0.01 0.01,-0.01 0.01,-0.02 0.06,-0.11 0.15,-0.27 0.15,-0.28 0.36,-0.71 0.55,-1.47 0.55,-2.27 0,-0.09 -0,-0.17 -0.01,-0.25 0,-0.04 -0,-0.07 -0.01,-0.11l-0 -0.07c-0,-0.02 -0,-0.05 -0.01,-0.07 -0,-0.03 -0.01,-0.06 -0.01,-0.09l-0.01 -0.06c-0,-0.03 -0.01,-0.06 -0.01,-0.09 -0,-0.02 -0.01,-0.05 -0.01,-0.07l-0.01 -0.06c-0.01,-0.04 -0.01,-0.07 -0.02,-0.1 -0.01,-0.03 -0.01,-0.06 -0.02,-0.08l-0.02 -0.07c-0.01,-0.03 -0.01,-0.05 -0.02,-0.08 -0.01,-0.04 -0.02,-0.07 -0.03,-0.11l-0.02 -0.06c-0.01,-0.02 -0.01,-0.04 -0.01,-0.06 -0.01,-0.04 -0.02,-0.08 -0.04,-0.12l-0.02 -0.05c-0.01,-0.02 -0.01,-0.04 -0.02,-0.06 -0.01,-0.04 -0.03,-0.08 -0.04,-0.11l-0.02 -0.05c-0.01,-0.02 -0.01,-0.04 -0.02,-0.05 -0.02,-0.04 -0.03,-0.08 -0.05,-0.13l-0.02 -0.05c-0.01,-0.01 -0.01,-0.03 -0.02,-0.04 -0.03,-0.06 -0.05,-0.11 -0.08,-0.16l-0.02 -0.04c-0.03,-0.05 -0.06,-0.11 -0.09,-0.17l-0.01 -0.03c-0.03,-0.06 -0.07,-0.11 -0.1,-0.17 -0,-0 -0.01,-0.02 -0.01,-0.02 -0.04,-0.05 -0.07,-0.11 -0.11,-0.17 -0,-0 -0.01,-0.01 -0.01,-0.02 -0.04,-0.06 -0.08,-0.11 -0.12,-0.16 -0,-0 -0.01,-0.01 -0.01,-0.01 -0.05,-0.06 -0.09,-0.11 -0.14,-0.17 -0.05,-0.05 -0.1,-0.11 -0.15,-0.16 0,-0 0,-0 0,-0 -0.85,-0.85 -2.01,-1.3 -3.36,-1.3 -2.74,0 -4.66,1.91 -4.66,4.65 0,0.85 0.22,1.68 0.63,2.42l0.07 0.13c0,0.01 0.01,0.01 0.01,0.02l0.12 0.18c0.01,0.02 0.03,0.04 0.03,0.05l2.98 5 -0 0 0.69 1.16c0.04,0.06 0.1,0.1 0.18,0.1l0 0c0.07,-0 0.14,-0.04 0.18,-0.1l0.67 -1.16 0 0 2.9 -5c0.03,-0.04 0.05,-0.07 0.07,-0.11z"/>
 </g>
</svg>
