<?xml version="1.0" encoding="UTF-8"?>
<!DOCTYPE svg PUBLIC "-//W3C//DTD SVG 1.1//EN" "http://www.w3.org/Graphics/SVG/1.1/DTD/svg11.dtd">
<!-- Creator: CorelDRAW -->
<svg xmlns="http://www.w3.org/2000/svg" xml:space="preserve" width="1.0522in" height="1.0522in" version="1.1" style="shape-rendering:geometricPrecision; text-rendering:geometricPrecision; image-rendering:optimizeQuality; fill-rule:evenodd; clip-rule:evenodd"
viewBox="0 0 13.88 13.88"
 xmlns:xlink="http://www.w3.org/1999/xlink"
 xmlns:xodm="http://www.corel.com/coreldraw/odm/2003">
 <defs>
  <style type="text/css">
   <![CDATA[
    .fil1 {fill:#4C4E50}
    .fil0 {fill:#4C4E50;fill-rule:nonzero}
   ]]>
  </style>
 </defs>
 <g id="Capa_x0020_1">
  <metadata id="CorelCorpID_0Corel-Layer"/>
  <path class="fil0" d="M3.93 11.49l0.24 0.14c0.87,0.51 1.85,0.79 2.85,0.79 3.07,0 5.57,-2.5 5.57,-5.56 0,-3.07 -2.5,-5.56 -5.57,-5.56 -3.07,0 -5.57,2.5 -5.57,5.56 0,1.01 0.28,2.01 0.82,2.88l0.14 0.24 -0.56 2.07 2.09 -0.56zm-3.93 2.39l1 -3.71c-0.56,-1.02 -0.86,-2.16 -0.86,-3.31 0,-3.78 3.08,-6.86 6.87,-6.86 3.79,0 6.87,3.08 6.87,6.86 0,3.78 -3.08,6.86 -6.87,6.86 -1.14,0 -2.26,-0.29 -3.27,-0.83l-3.74 1z"/>
  <path class="fil1" d="M9.56 7.81c-0.28,-0.17 -0.65,-0.36 -0.98,-0.22 -0.25,0.1 -0.42,0.5 -0.58,0.71 -0.08,0.1 -0.19,0.12 -0.32,0.07 -0.96,-0.38 -1.69,-1.02 -2.22,-1.9 -0.09,-0.14 -0.07,-0.24 0.04,-0.37 0.16,-0.19 0.36,-0.4 0.4,-0.65 0.04,-0.25 -0.08,-0.55 -0.18,-0.78 -0.13,-0.29 -0.28,-0.7 -0.57,-0.86 -0.27,-0.15 -0.62,-0.07 -0.85,0.13 -0.41,0.33 -0.61,0.85 -0.6,1.37 0,0.15 0.02,0.29 0.05,0.43 0.08,0.34 0.24,0.66 0.42,0.96 0.13,0.23 0.28,0.45 0.44,0.66 0.51,0.7 1.15,1.3 1.89,1.75 0.37,0.23 0.77,0.42 1.18,0.56 0.46,0.15 0.87,0.31 1.37,0.22 0.52,-0.1 1.03,-0.42 1.24,-0.92 0.06,-0.15 0.09,-0.32 0.06,-0.47 -0.07,-0.32 -0.51,-0.52 -0.77,-0.67z"/>
 </g>
</svg>
