<?xml version="1.0" encoding="UTF-8"?>
<!DOCTYPE svg PUBLIC "-//W3C//DTD SVG 1.1//EN" "http://www.w3.org/Graphics/SVG/1.1/DTD/svg11.dtd">
<!-- Creator: CorelDRAW -->
<svg xmlns="http://www.w3.org/2000/svg" xml:space="preserve" width="1.04965in" height="1.0522in" version="1.1" style="shape-rendering:geometricPrecision; text-rendering:geometricPrecision; image-rendering:optimizeQuality; fill-rule:evenodd; clip-rule:evenodd"
viewBox="0 0 13.58 13.61"
 xmlns:xlink="http://www.w3.org/1999/xlink"
 xmlns:xodm="http://www.corel.com/coreldraw/odm/2003">
 <defs>
  <style type="text/css">
   <![CDATA[
    .fil1 {fill:#4C4E50}
    .fil0 {fill:#4C4E50;fill-rule:nonzero}
   ]]>
  </style>
 </defs>
 <g id="Capa_x0020_1">
  <metadata id="CorelCorpID_0Corel-Layer"/>
  <path class="fil0" d="M3.84 11.27l0.23 0.14c0.85,0.5 1.81,0.77 2.78,0.77 3.01,0 5.45,-2.45 5.45,-5.45 0,-3.01 -2.45,-5.45 -5.45,-5.45 -3.01,0 -5.45,2.45 -5.45,5.45 0,0.99 0.28,1.97 0.8,2.83l0.14 0.23 -0.54 2.03 2.04 -0.55zm-3.84 2.35l0.98 -3.64c-0.55,-1 -0.84,-2.11 -0.84,-3.25 0,-3.71 3.02,-6.72 6.72,-6.72 3.71,0 6.72,3.02 6.72,6.72 0,3.71 -3.02,6.72 -6.72,6.72 -1.11,0 -2.21,-0.28 -3.2,-0.81l-3.66 0.98z"/>
  <path class="fil1" d="M9.36 7.66c-0.28,-0.17 -0.64,-0.35 -0.96,-0.22 -0.25,0.1 -0.41,0.49 -0.57,0.69 -0.08,0.1 -0.18,0.12 -0.31,0.07 -0.94,-0.37 -1.66,-1 -2.18,-1.86 -0.09,-0.13 -0.07,-0.24 0.03,-0.36 0.16,-0.18 0.35,-0.39 0.39,-0.64 0.04,-0.25 -0.07,-0.54 -0.18,-0.76 -0.13,-0.28 -0.28,-0.69 -0.56,-0.85 -0.26,-0.15 -0.6,-0.06 -0.83,0.12 -0.4,0.33 -0.59,0.84 -0.59,1.34 0,0.14 0.02,0.29 0.05,0.43 0.08,0.33 0.24,0.65 0.41,0.94 0.13,0.22 0.27,0.44 0.43,0.65 0.5,0.68 1.13,1.27 1.85,1.72 0.36,0.22 0.75,0.42 1.15,0.55 0.45,0.15 0.85,0.3 1.34,0.21 0.51,-0.1 1.01,-0.41 1.22,-0.91 0.06,-0.15 0.09,-0.31 0.06,-0.46 -0.07,-0.32 -0.5,-0.51 -0.76,-0.66z"/>
 </g>
</svg>
