<?xml version="1.0" encoding="UTF-8"?>
<!DOCTYPE svg PUBLIC "-//W3C//DTD SVG 1.1//EN" "http://www.w3.org/Graphics/SVG/1.1/DTD/svg11.dtd">
<!-- Creator: CorelDRAW -->
<svg xmlns="http://www.w3.org/2000/svg" xml:space="preserve" width="3.06382in" height="2.14517in" version="1.1" style="shape-rendering:geometricPrecision; text-rendering:geometricPrecision; image-rendering:optimizeQuality; fill-rule:evenodd; clip-rule:evenodd"
viewBox="0 0 87.72 61.42"
 xmlns:xlink="http://www.w3.org/1999/xlink"
 xmlns:xodm="http://www.corel.com/coreldraw/odm/2003">
 <defs>
  <style type="text/css">
   <![CDATA[
    .fil0 {fill:#4C4E50;fill-rule:nonzero}
   ]]>
  </style>
 </defs>
 <g id="Capa_x0020_1">
  <metadata id="CorelCorpID_0Corel-Layer"/>
  <path id="path7429" class="fil0" d="M85.91 9.61l0 -0c1.88,6.86 1.81,21.17 1.81,21.17 0,0 0,14.23 -1.81,21.1 -1.01,3.76 -3.97,6.72 -7.73,7.73 -6.86,1.81 -34.32,1.81 -34.32,1.81 0,0 -27.38,0 -34.32,-1.88 -3.76,-1.01 -6.72,-3.97 -7.73,-7.73 -1.81,-6.79 -1.81,-21.1 -1.81,-21.1 0,0 0,-14.23 1.81,-21.1 1.01,-3.76 4.05,-6.79 7.73,-7.8 6.86,-1.81 34.32,-1.81 34.32,-1.81 0,0 27.46,0 34.32,1.88 3.76,1.01 6.72,3.97 7.73,7.73zm-50.8 7.95l0 26.3 22.83 -13.15 -22.83 -13.15z"/>
 </g>
</svg>
